<?xml version="1.0" encoding="utf-8"?>
<!-- Generator: Adobe Illustrator 16.0.0, SVG Export Plug-In . SVG Version: 6.00 Build 0)  -->
<!DOCTYPE svg PUBLIC "-//W3C//DTD SVG 1.1//EN" "http://www.w3.org/Graphics/SVG/1.1/DTD/svg11.dtd">
<svg version="1.1" id="Layer_1" xmlns="http://www.w3.org/2000/svg" xmlns:xlink="http://www.w3.org/1999/xlink" x="0px" y="0px"
	 width="59.734px" height="64.497px" viewBox="0 0 59.734 64.497" enable-background="new 0 0 59.734 64.497" xml:space="preserve">
<g>
	<polygon fill="#FF5744" points="19.852,34.013 41.407,22.431 41.573,18.647 29.942,24.939 19.852,19.319 19.852,23.005 
		26.573,26.749 19.852,30.36 	"/>
	<polygon fill="#FF5744" points="41.49,26.39 19.934,37.971 19.934,41.637 31.4,35.464 41.49,41.083 41.49,37.396 34.769,33.653 
		41.49,30.042 	"/>
	<polygon fill="#FF5744" points="49.487,16.521 53.083,16.521 53.083,8.018 53.066,8.018 49.972,8.018 33.399,8.018 32.326,8.018 
		28.983,8.018 27.484,8.018 11.337,8.018 8.244,8.018 8.227,8.018 8.103,39.417 11.65,39.417 11.827,11.763 27.932,11.643 
		33.378,11.643 49.483,11.763 	"/>
	<polygon fill="#FF5744" points="49.64,20.375 49.483,49.188 32.963,49.31 32.963,49.298 26.775,49.298 11.827,49.188 
		11.821,43.458 8.227,43.458 8.227,52.932 8.244,52.932 11.337,52.932 26.775,52.932 28.983,52.932 32.326,52.932 32.963,52.932 
		49.972,52.932 53.066,52.932 53.083,52.932 53.083,20.375 	"/>
</g>
</svg>
