<svg viewBox="0 0 8 12" version="1.1" xmlns="http://www.w3.org/2000/svg" style="transform: rotate(90deg);"><g stroke="none" stroke-width="1" transform="translate(-12.000000, -10.000000)" fill="#54d4f2" fill-rule="nonzero"><path d="M16.7178991,10.22 L16.7178991,10.22 C16.5761781,10.081116 16.3863131,10.002304 16.1878991,10 L15.8078991,10 L15.8078991,10 C15.6090541,10.000175 15.4184161,10.0793075 15.2778991,10.22 L12.1478991,13.36 L12.1478991,13.36 C11.9518381,13.55446 11.9505401,13.87104 12.1449999,14.067101 C12.1459624,14.0680713 12.1469288,14.0690377 12.1478991,14.0700001 L12.8478991,14.7800001 L12.8478991,14.7800001 C13.0423591,14.9760611 13.3589391,14.9773591 13.5550001,14.7828993 C13.5559704,14.7819369 13.5569368,14.7809705 13.5578992,14.7800002 L14.9978992,13.3300002 L14.9978992,21.5 L14.9978992,21.5 C14.9978993,21.7761422 15.2217572,22 15.4978992,22 L16.4978992,22 L16.4978992,22 C16.7740412,22 16.9978992,21.7761422 16.9978992,21.5 L16.9978992,13.3300002 L18.4378992,14.7700002 L18.4378992,14.7700002 C18.6272932,14.9633002 18.9375282,14.9664662 19.1308282,14.7770717 C19.1332094,14.7747386 19.1355666,14.7723814 19.1378997,14.7700002 L19.8478997,14.0600002 L19.8478997,14.0600002 C20.0439607,13.8655402 20.0452587,13.5489602 19.8507988,13.3528992 C19.8498364,13.3519289 19.84887,13.3509625 19.8478996,13.3500001 L16.7178991,10.22 Z"></path></g></svg>