<svg xmlns="http://www.w3.org/2000/svg" width="161.518" height="120.1" viewBox="0 0 161.518 120.1">
  <g id="Group_1331" data-name="Group 1331" transform="translate(-619.832 -1378.25)">
    <g id="Group_1329" data-name="Group 1329" transform="translate(539 1137.1)">
      <path id="Path_1291" data-name="Path 1291" d="M211.7,333.9H95.3a6.7,6.7,0,0,1-6.7-6.7V248.6a6.7,6.7,0,0,1,6.7-6.7H211.7a6.7,6.7,0,0,1,6.7,6.7v78.6A6.765,6.765,0,0,1,211.7,333.9Z" fill="#d2eceb" stroke="#7fcbb5" stroke-miterlimit="10" stroke-width="1.5"/>
      <path id="Path_1292" data-name="Path 1292" d="M204.6,326.5H102.4a5.8,5.8,0,0,1-5.8-5.8V254.8a5.8,5.8,0,0,1,5.8-5.8H204.6a5.8,5.8,0,0,1,5.8,5.8v65.9A5.8,5.8,0,0,1,204.6,326.5Z" fill="#fff" stroke="#7fcbb5" stroke-miterlimit="10" stroke-width="1.5"/>
      <path id="Path_1293" data-name="Path 1293" d="M82,355.8l6.5-14.2H218.4l10.4,14.2Z" fill="#fff" stroke="#7fcbb5" stroke-miterlimit="10" stroke-width="1.5"/>
      <circle id="Ellipse_107" data-name="Ellipse 107" cx="25.8" cy="25.8" r="25.8" transform="translate(190 308.9)" fill="#fff" stroke="#7fcbb5" stroke-miterlimit="10" stroke-width="1.5"/>
      <rect id="Rectangle_220" data-name="Rectangle 220" width="24.1" height="2.9" transform="translate(141.1 346.8)" fill="#7fcbb5"/>
      <g id="Group_1327" data-name="Group 1327">
        <path id="Path_1294" data-name="Path 1294" d="M160.9,310.8H146a4.588,4.588,0,0,1-4.6-4.6V272.7a4.588,4.588,0,0,1,4.6-4.6h14.9a4.588,4.588,0,0,1,4.6,4.6v33.5A4.467,4.467,0,0,1,160.9,310.8Z" fill="none" stroke="#7fcbb5" stroke-miterlimit="10" stroke-width="1.334"/>
        <rect id="Rectangle_221" data-name="Rectangle 221" width="16.1" height="27.6" transform="translate(145.4 274)" fill="#fff" stroke="#7fcbb5" stroke-miterlimit="10" stroke-width="1.334"/>
        <circle id="Ellipse_108" data-name="Ellipse 108" cx="1.4" cy="1.4" r="1.4" transform="translate(152.1 269.7)" fill="#7fcbb5"/>
        <rect id="Rectangle_222" data-name="Rectangle 222" width="10.4" height="1.9" transform="translate(148.3 305.8)" fill="#7fcbb5"/>
        <g id="Group_1326" data-name="Group 1326">
          <circle id="Ellipse_109" data-name="Ellipse 109" cx="2.8" cy="2.8" r="2.8" transform="translate(150.7 290.7)" fill="#7fcbb5"/>
          <path id="Path_1295" data-name="Path 1295" d="M157.6,300.4a2.663,2.663,0,0,1-.3,1.2h-7.5a2.663,2.663,0,0,1-.3-1.2c0-1.6,1.8-3,4.1-3C155.7,297.5,157.6,298.8,157.6,300.4Z" fill="none" stroke="#7fcbb5" stroke-miterlimit="10" stroke-width="1.278"/>
        </g>
      </g>
      <g id="Group_1328" data-name="Group 1328">
        <circle id="Ellipse_110" data-name="Ellipse 110" cx="5.7" cy="5.7" r="5.7" transform="translate(210.1 324.4)" fill="#fff" stroke="#7fcbb5" stroke-miterlimit="10" stroke-width="1.5"/>
        <path id="Path_1296" data-name="Path 1296" d="M221.2,345.1H210.5a3.691,3.691,0,0,1-3.7-3.7v-6.6a3.691,3.691,0,0,1,3.7-3.7h10.7a3.691,3.691,0,0,1,3.7,3.7v6.6A3.757,3.757,0,0,1,221.2,345.1Z" fill="#fff" stroke="#7fcbb5" stroke-miterlimit="10" stroke-width="1.5"/>
      </g>
    </g>
  </g>
</svg>
