<?xml version="1.0" encoding="utf-8"?>
<!-- Generator: Adobe Illustrator 14.0.0, SVG Export Plug-In  -->
<!DOCTYPE svg PUBLIC "-//W3C//DTD SVG 1.1//EN" "http://www.w3.org/Graphics/SVG/1.1/DTD/svg11.dtd" [
	<!ENTITY ns_flows "http://ns.adobe.com/Flows/1.0/">
]>
<svg version="1.1"
	 xmlns="http://www.w3.org/2000/svg" xmlns:xlink="http://www.w3.org/1999/xlink" xmlns:a="http://ns.adobe.com/AdobeSVGViewerExtensions/3.0/"
	 x="0px" y="0px" width="347px" height="113px" viewBox="0 0 347 113" enable-background="new 0 0 347 113" xml:space="preserve">
<defs>
</defs>
<path id="Combined-Shape_1_" fill="#999999" d="M73.2,0C38.7-0.2,8.5,23,0,56.3c8.5,33.2,38.7,56.4,73.2,56.2
	c34.5,0.2,64.6-23,73.2-56.2C137.8,23,107.6-0.2,73.2,0L73.2,0z M73.2,101.3c-28.4,0.4-53.6-18-61.9-45c8.2-27,33.5-45.4,61.9-45
	c28.3-0.3,53.3,18.1,61.5,45C126.5,83.2,101.4,101.5,73.2,101.3z"/>
<path id="Combined-Shape-Copy_1_" opacity="0.99" fill="#999999" enable-background="new    " d="M273.2,0
	c-34.5-0.2-64.6,23-73.2,56.2c8.5,33.2,38.7,56.4,73.2,56.2c34.5,0.2,64.6-23,73.2-56.2C337.8,23,307.6-0.2,273.2,0L273.2,0z
	 M273.2,101.3c-28.4,0.4-53.6-18-61.9-45c8.2-27,33.5-45.4,61.9-45c28.3-0.3,53.3,18.1,61.5,45C326.5,83.2,301.4,101.5,273.2,101.3z
	"/>
</svg>
