<svg width="481" height="295" fill="none" xmlns="http://www.w3.org/2000/svg"><path d="M339.9 147.9H151.8v144.2h188.1V147.9z" fill="#fff"/><path d="M369.499 49.5l-14.7 7.1c-3.9 1.9-8.5 3.5-11.2 7.1-5.4 6.9-3.8 16.6-8.6 23.8-1 1.5 1.2 3.2 2.5 2 3.3-3.3 7.6-5.4 11.6-7.8 2.9-1.7 6.5-3.3 9-5.7.3-.1.6-.3.9-.7 4.7-7.3 8.3-15.2 12.3-23 1.7-1 .1-3.7-1.8-2.8z" fill="#F45D48"/><path d="M318.9 81.9c-.7 0-19.3 12.3-29.8 26.3l-15.6 18.3-15.9 16.2 5.6 5.3 54.2-.9s4.1-8.5 10.4-13.2c6.3-4.6 26.8-14.7 34.9-17.6 8.1-2.9 27.1-13.6 27.6-16.3.5-2.7-24-6.8-24-6.8s-10.1 8-19.2 5.8-11.3-1.7-11.3-6.2-2.4-2.2-2.4-2.2-8.2 16.9-14.5 15.7c-6.3-1.2-5.8-2.6-4.3-6.8 1.7-4 4.3-17.6 4.3-17.6z" fill="#F45D48"/><path d="M421.099 6.6c-16.3 7.5-80.6 32.5-87.6 38.9-7 6.4-10.1 11.9-12.2 22.4-5.7 28.3-3.3 34.9 3.1 31.7 6.7-3.4 10.6-12.9 12.3-17.8 1.7-5 4.1-15.7 6.4-18.4 2.3-2.7 31.5-16.1 31.5-16.1l-13.5 25.7s-16.6 14.1-24.4 17.2c-7.9 3.1 6.8 13 19.1 7.9 12.2-5.2 14.5-4.6 14.5-4.6l20.3 6.8s-17.2 13.2-34.8 19c0 0 13.2 18.7 16.2 13.5 3-5.2 0-16.4-1-18.2 0 0 17.8 11 21.9 6.6 0 0-.8-8.5-3.7-11.8 0 0 17.2 2.3 19.1.8 1.9-1.5 1.2-10.4-10.4-13.7 0 0 22.8-1.5 28.2-7 5.4-5.6 8.9-12 10.8-17 1.9-5-.8-7 11.8-11.4 12.6-4.4 20.1-23.2 15.7-46-4.6-22.8-38.4-10.8-43.3-8.5z" fill="#DBAFAB"/><path d="M158.499 228.1s39.8-2.3 68.3-21.1c0 0 .2 60.1.2 69.3 0 9.2 37.3 11.4 37.3.2 0-11.2.4-127.7.4-127.7l-33.5-.8s-16 67.2-72.7 80.1z" fill="#F45D48"/><path d="M207.7 73.3c-17.7-10-50.1 4.5-43.1 33.2 6.2 25.3 35 42.8 66.2 41.5 27.2-1.1 33.8 0 33.8 0l-.6-3s9.6-7 15.5-16.9c5.9-9.9 12.5-27.4 7.5-46.4s-27-26.8-41-23.8-19.5 11.4-18.4 20.4c1.1 9 4.1 26.9 4.1 26.9s-12.4-25.4-24-31.9zM113.899 228.7s-15 24.5-70.3 23.1c-5.9-.2-34-7.2-41.7-17.3l28-13.9s-6.7-13-1.3-15.5 22 3.4 22 3.4 19.7 7 27.4 5.1c.6-.2-18.3-15.2-20.8-25.3-2.5-10.1 3.7-29.9 24-24.8 0 0-1.8 49.9 38.1 65l-5.4.2z" fill="#F45D48"/><path d="M204.8 123.9c-.2.2-.1 1.1.2 1.4.1.1.4-.3.4-.2 0 1 2.6 2.7 2.5 2.8 0 .1-.4.7-.4.7.2.1.3-.3.5-.3-.9.4 4.2 5.1 4.3 4.8 0 .1-.5.4-.4.5 0 0 2 1.8 2.1 1.5-.3.5 3.3 3.6 4.1 4.1.2.1 6 3.6 6 2.3-.2 1.8 3.6 2 4.8 1.7-.6-1.2-.7-2-1.6-2.6-.4-.2-.9-.1-1.3-.3-.1 0-.7-.7-.5-.7-.8-.4-2.5-2-3.5-1.3.8-.3-3.9-3.5-3.9-3.5.1-.1.2-.3.2-.5-.8.4-4.5-3.9-5.2-4.6-.6-.6-1.3-1.2-2-2.1-.4-.5-2.8-2.6-2.7-2.5 0-.6.2-.9-.7-.8.8-.2-1.6-3.2-2-3.8-.2-.2-1.9-3.8-1.9-3.7-.2 0-1.3.2-1.4.6 0-.1.7.6-.3.5-.4 0 .8-1.6 1-1.5-.1-.2-1.1 0-1.1-.3-.1-.6.2-.5.1-.9-.2-.6.4-1.9-.5-1.9-.3 0 .2-.4.1-.4-.4 0-.7.1-1 0 .3.2.4-.3.4-.5 0 0-.6.1-.5.1 0-.5-.1-.5-.2-.6-.1-.2.4-1.4.3-1.7-.3-1.9-1.6-3.9-1.9-6.1-.1-.8-.4-2-.5-2.9-.1-.7.2-1.4-.1-2-.2-.3-1.4-.3-1.5-.5-.2-.4.8-.3.8-.3.1 0-.3-.8-.3-.8 0-.2.9-.7.8-1 .1.2-1.4-1.7-1.4-1.2.1-.5.7-.8.9-1.2l-.3-.2c1.3.6 1-2.3 1.1-3 .1-.4 1.5-4.1.6-3.9 1-.2 1.5-3 1.3-3 1 .3 2.3-1.5 3-2 1.2-.9 2.5-1.4 3.5-3.3-1.3-.5-5.2.6-4.8 2.2-.1-1-3.2 2.4-3.4 2.5-.4.6-1.4 2.8-1.8 3.1-.5.7-2 3.3-.8 3.9-.7-.4-.4 9.4-.3 10.1.3 2.1.5 3.7.9 5.2.2.8 1.1 4.9 1.3 4.9 0 0 .6-.1.6 0-.6.9.8 3.1 1 3.5.3.7 1.6 4.4 2.7 2.6-.7 1.4-.8 1-.4 2.2.2.8 1 1.7 1.5 2 0 0 .4 1.2.7 1.5.2.2.2.4.2.5.1.7 1 .6.7.9zm13.4 14c-.5.3.2-.5 0 0zm-.4-.3c.8-1.2-.5.8 0 0zm-19.4-49.8c.2-.2.5.2.5.3-.1.3-.6-.2-.5-.3zm-1.7 12.1c-1 .3.9-.3 0 0zm5.7 18.8c-.4.3.6-.5 0 0z" fill="#222525"/><path d="M480.3 50.4c-5.1-1.8-11 2.7-15.5 3.6-2.5.5-4.4 1.4-6.5 2.4-1.6.8-3.6.8-5.6 1.4-2.7.9-5.4 2.1-8.2 3.1-2.1.8-4.8 1.8-6.5 4-1.6 2.1-1.9 4.1-2.9 6.3-1.2 2.6-2.2 5.3-3.6 7.8-1.2 2.2-2.7 5-4.7 6.8-1.8 1.7-4.9 3.1-6.2 4.4 0 0-3.6 1-3 1.3-.1-.2-.1-.3.1-.4-.2-.2-7.7 1.8-8.1 1.8-2.5.4-5.1.5-7.7.9-1.6.2-5.6-.6-5.4 2 .1 1.7 3.2 2.7 4.5 2.2-.1-.2-.9-.7-1.1-.9.5.5 1 .2 1.4.7.7.8-.6.7.2 1.6.3.3 1.2.2 1.5.4 2.3 1.6 2.2 4.4 3.9 6.7.1-.1.2-.3.3-.2-.3-.2.7 2 .7 1.8.1.2-.4-.3-.4-.2-.1.1-.1.3-.3.4 0 0 .5.4.4.5-.9.6-3.4-.1-4.5-.2-1.7-.2-4-.6-5.9-.9-2.1-.3-8.7-2.2-10.3-.6-1.2 1.2-.2 2.2.6 3.2 1.2 1.6 2.2 2.7 2.7 4.7.3 1.2 1.2 3.5.5 4.4-.2.2-3.6.2-2.9 1.3-1.5-.3-.5-.4-.7-.9 0 0-3.3-.9-3.9-1.2-.6-.3-2-1.1-2.8-1.1-.2 0-1 .4-1.1.3-.8-.3-2.1-1.1-3.2-2-.2-.1-.4 0-.7-.2-.1-.1-2.2-1.5-2.7-1.9 1.1-1.2 12.4-5.3 10-7.3.6-.6.6.2.8.4-.5-.4 2.1-1 2-.9.4-.3.8-.7 1.2-1.1.1-.1-.2-1.1-.2-1.1.5-.3 1.4-.2 2-.4 0 0-.2-.5 0-.5 1.7.7 4-1.9 2.9-3.7-1.2-1.9-4.9-2.1-6.7-2.5-.7-.2-1.3-.4-2.2-.7-1.2-.4-2.2.3-3.1.1-.3-.1-1.2-1-1.8-1.2-1.1-.4-2-.5-3.1-.9-.3-.1-3.3-.3-3.4-.6-.3-.7 1.1-1.2 1.5-1.4.2-.1.3-.5.4-.6.3-.2.8.3 1 .2.4-.3-.2-.3-.2-.5 0 .2 4.5-2.3 5-2.6.5-.3 4.1-2.8 4.6-2.1.1.1-.3.6 0 .6 5.7 1.9 12.6 2.8 18.7 1.7 1.4-.2 3.4-.6 5-1.3 1.6-.7 2.4-1.7 3.6-2.4 2.7-1.5 5-2.9 6.5-6.2-3.7.5-5.3 3.6-8.1 4.5-1.4.5-3.1.9-4.4 1.5-1.5.7-1.6.6-3.1.7.1.4.1.7.2 1.1 0-1.8-3.3-.6-4.5-.7-1.2-.1-3.1-.5-3.7-.6-3.2-.5-6-.9-9-1.8-3.6-1.1-6.9 1.8-9.7 3.7-1.1.7-7.5 5.3-7.6 5.2-.1-.1-.1-.3 0-.4-.2-.2-7.1 2.9-7.6 3.1-1.5.7-2.5 1.1-4 1.4-.4.1-3.2.6-3.2.8-.1.4-.2.7-.2 1.3.3.2 1.7.7.2.4-.3-.1-.8-.9-.8-.9-.3 0-.8.5-1.2.4-1.2-.1-4.9-1.2-5.5-.6.1-.1-1.6-.2-1.6.3 0-.2.2-.2.3-.3l-.6-.3c.5.5-1.5-.4-1.7-.5-1-.7-1.7-.8-2.4-1.7-1.1-1.3-2-2.4-1.2-4 1.1-1.9 4.3-2.8 6.1-3.8.9-.5 7.2-4 5.3-5.1 1-.7.5.1.9.3-.2-.2 2-1.2 2.2-1.2.8-.5 1.5-1 2.2-1.7.6-.6 0-.4.8-.9.2-.1 2.1-1 1.8-1.1 1.5.9 6.3-3.2 8.1-4.5 1.6-1.1 2.7-2.8 3.6-3.5.5-.4 3.6-2 3.1-2.9.4-.3.5-.6 1-1 .6-.5.7-.3 1.5-.8 1.1-.7 2.5-2.1 3.3-3.2 2.2-2.8 5.3-4.3 5.9-8.4-2.3 1.1-4.2 3.3-5.6 5.3-1 1.4-2.2 2.1-3.8 3.4-3.6 3-7.3 5.3-10.5 8.2.3-1.1 1.2-1.6 1.7-2.3.8-1.2 1.4-2.5 2.3-3.8.7-1 .6-2.4 1.1-3.1.5-.8 1.2-1.1 1.2-1.8 2.3-2.6 4.9-7.1 5.9-10.2.5-1.3.7-2.4-.3-3.2-2.1-1.4-4.6 1.4-6.3 2.1-3.3 1.3-6.5 2.9-9.7 4.4-2.1 1-4.2 2-6.2 3.1-.5.3-3.4 3-3.7 2.8-.1-.1-.1-.3 0-.4-.6-.8-7.7 4.6-8.3 5.5-.4.7-3.8 7.7-3 8.3.4.3.5.4 1.1.8 0 0 .3-1.1.4-1 .4.4.4.5.1.9-.2.2-1.1.5-1.1.5-.3.6.2.8 0 1.4-.5 1.2-2.8 4.9-2.2 5.8-.1-.2-.5 1.8 0 1.8-.2 0-.1-.2-.2-.4-.2.2-.2.5-.4.6.6-.4-.6 1.8-.7 1.9-.7 1.2-1 2.1-1.6 3.2-1.3 2.1-2.2 4.3-3.3 6.5-1.4 2.6-2.9 4.5-4.8 6.6-1.3 1.3-2.5 2-3.9 3.3-.8.7-1.2 1.1-1.1 2.1-1 .6-.6-.4-.8-.6.1.1-1.9-.1-2.1-.2-.4-.2-1.5-.8-1.9-1.1-.9-.7-.4.5-.7-.8 0-.2.4-1.9.3-1.9 1.8-.5 3.1-7.3 3.6-9.7.3-1.2.4-2.8.6-3.7.2-.9.2-1.3.5-2.2.5-1.5 1.1-3.5 1.5-5.1.6-2.2.7-4.6 1.2-6.9.3-1.5 1-4 1.2-6 .4-3 .7-7.3 2.1-10.1 1.1-2.3 3-4.3 4.8-6 .8-.8 1.6-1.8 2.2-2.5 0 0 2.1-1.6 1.7-1.7.1.1.2.2.1.4.2.2 6.6-4.4 7.3-4.9 1.2-.8 2.7-1.5 3.9-2.1.5-.3 3.7-1.5 3.7-1.9 0-.5 0-.7-.1-1.4 0 0-1.1.4-1 .3.2-.5-.1-.6.7-.6.3 0 1.1.5 1 .5.6-.1.5-.6 1.1-.8 1.3-.4 5.5-1 5.8-2.2 0 0 1.6-.7 1.3-1.2.1.2-.1.2-.1.4.3 0 .5-.1.7-.1-.7-.1 1.7-.9 1.9-.9 1.3-.3 2.2-.8 3.4-1.2 2.4-.6 4.6-1.8 6.9-2.8 2.7-1.2 5.3-2 8-3 1-.4 8.4-3.1 6.6-4.3 1.1-.6.6.2.9.5-.1-.1 2.4-.8 2.6-.9.9-.3 1.9-.8 2.7-1.3.7-.5.1-.4 1.1-.8.2-.1 2.3-.6 2.2-.8 1.5 1.2 7-1.9 9.1-2.7 1.1-.4 2.3-.8 3.3-1.5.5-.4 1.1-1.1 1.6-1.3.5-.2 1.7 0 2.3-.3.6-.2 2-1.1 2.4-1.3.4-.3.6-.7 1-.9.9-.5.9-.2 2-.5 1.4-.5 3.3-1.3 4.6-2.2 3.1-2.1 7-2.6 9-6.6-2.8.6-5.7 2.2-7.9 3.7-1.9 1.3-4.3 1.8-6.9 3-2.5 1.1-4.7 1.7-7.4 2.8-1.2.5-2 1.2-3.3 1.7-.9.3-4.3.8-4.5 2.2.1-.5-3.3 1.2-3.7 1.3-1.6.6-3.1 1.2-4.8 1.8-3.5 1.3-7.3 2.9-10.4 4.1-3.7 1.5-6.7 2.5-10 3.9-2 .8-3.9 1.7-5.8 2.5-.5.2-3.2 1.7-3 1.7-2-.4-4.5 1.7-6 2.5-2.2 1.1-4.9 1.9-7 3.2.1.1.9 1.2.5 1.2-1.8-.6-2-.7-3.7.3-1.6.9-3.3 1.7-4.3 2.8-.7.5-2.2 1-3 1.5-.3.2-.7.3-.9.6.1-.1-.8.6-.7.6-.5.4.1.7-.2 1 .4-.4-4.1 1.2-2.9 1.2-.3.5-2.7 1.9-3.3 2.4-.8.7-1.3 1.2-2.1 2-.2.2-.2.5-.4.6-.2.2-1 .2-1.1.3-.3.4.3.2.3.4 0-.2-3.8 3.8-4.2 4.5-.7 1.2-1.5 2.6-1.8 3.9 0 0-.5 3.5-.3 3.4-.9.6-1 3-1.2 4.7-.2 1.4-.8 3.4-1.1 5.3-.3 1.8-.6 3.1-1 4.8-.3 1.3-.3 3.8-1 4.7-1.3 1.7-4.2 2.7-5.9 3.9-.6.4-1.4 1-1.9 1.4-.7.6-1 1.1-1.6 1.5-2 1.5-4.1 3.1-6.1 4.7-1.4 1.2-2.3 1.4-3.6 2.7-2.1 2.1-3.5 4.3-5 6.7-.2.3-2.8 3.8-3.5 3.9.6-2.7.5-5.9.5-8.7 0-2.6.5-8-1.1-9.6 0 0-.2-3.4-.6-2.9.2-.1.3 0 .4.1.5-.1-2.4-9.8-2.7-10.6-.8-1.8-1.7-3.3-2.3-5.1-.3-.7-1.6-3.9-2.2-3.9h-1c-.8.3.1 1.2.1 1.2-1.7.4-.1-1.7-.4-2.2-.3-.5-1.1-.4-1.3-.9-.3-.4-.8-1.6-.8-1.6-.7-1.2-2.3-3.9-3.7-4.4 0 .1.1.3-.1.3 0 0-1.7-1.4-2-.8.1-.2.3-.1.5-.1-.2-.3-.4-.4-.6-.7.3.5-2-1.1-2.1-1.3-1.4-1-2.5-1.7-4-2.3-2.8-1.3-5.5-1.9-8.5-2.5-3.2-.6-6.7-1.1-10-1.1-1.2 0-10.8 1.4-8.9 3-1.4.5-.5-.1-1-.5 0 0-2.7 1-3.1 1.2-1.2.6-2.1 1.2-2.9 2.3-.2.3.1.7 0 .8-.2.2-.8.3-1 .6-.2.2-1.9 2.2-1.7 2.2-2.7.3-3.5 6.6-4.1 9.4-.4 1.8-.4 4.5-.1 6.3.1.7.5 1.2.5 2 .1.7-.2 1.7-.1 2.4.5 2.9 1.5 4.7 1.5 7.2 0 2.3.7 4 1.2 6 .3 1.4.9 3 .7 4.7-1.2-2.8-3.2-4.9-4.7-7.4-1.5-2.6-3.6-5-5.5-7.3-2.8-3.2-9.4-10.9-13.5-10.9 0 0-3.4-2.3-3.2-1.6.1-.2.2-.3.4-.2.3-1.2-11-4.3-12.4-4.6-2.3-.3-4.7-.3-6.8-.4-1 0-5.1.1-5.5.8.2-.3-.6 1.4-.4 1.4 2.3.4.9.1-.7.1-.6 0-.2-.3-1.2 0-.2.1-.4.6-.5.6-.6.3-1.9 1.5-2.3.8-.1-.2-5.4 3.4-5.6 4.2.1 0 .4-.1.4.1 0 0-1.7 2-1 2.3-.2-.1 0-.4 0-.5-.9.6-1.1 2-1.7 2.9-1 1.4-1.6 3-2.3 4.5-1.6 3.5-2 7.4-2.2 11.2-.2 3.8.5 7.8 1.1 11.5.4 2.4 1.6 5 2.4 7.4.2.6 2.6 4.7 3.3 3.3.8 1.4-.1.7-.2 1.2.1-.1 1.6 2.8 1.7 3.1.5 1.3 1.4 2.7 2.5 3.6.8.7.8.2 1.6 1.1.2.2 2 2.8 2 2.7-.2 2.1 3.2 4.5 5.1 6.2 3 2.6 6.1 5.2 9.6 6.9.5.2 1.2.4 1.7.6.6.3 1.3 1.2 2 1.5 1.3.7 3 1.5 4.4 1.9 2.3.6 4.8 1.4 7.1 2.9-2.3-.4-4.7-.1-6.9-.1-.2 0-6.9-.3-5.7 1.4-1.5-.1-.5-.4-.8-.8 0 0-3-.2-3.4-.2-1.2-.1-2.7 0-3.9.3-1 .3-.6.4-1.6.5-.3 0-3.2-.3-3.1-.2-1.2-1.2-3.5-.9-5.6-.8-2.5 0-4.9-.2-7.3-.2-2.5 0-5 .5-6.9.7-.8.1-2.1-.4-3.1-.4-.9 0-2.4-.1-3.1.2-.4-.7-1.6-.2-2.3.4-1.5 1.2-1 2.5-1.1 4.2-.1 2.3 0 4.6 0 6.9 0 3.4.2 8.2-.1 11.9-.3 4 0 8-.1 11.8-.1 3.7-.8 10.6.6 13.4 0 0-.4 3.8.1 3.3-.2 0-.3 0-.4-.2-.6.2 0 10.6 0 11.6.1 2.1.1 4.3-.1 6.4-.1.7-.4 4.6 0 4.9.3.2.7.3 1.3.7 0-.1 0-1.5.2-1.4.5.3.6.6.3 1.2-.1.2-1.2 1.1-1.2.9-.1.8.4 1.1.5 1.7 0 .4-.1 3.4-.3 3.6-.2.1-3.4.6-3.3.6-1.2-.8-4.8-.3-6.7-.3-3 0-6.4-.2-9.4-.2-2 0-3.8-.3-5.7-.6-1.2-.2-2.3-.4-3.4-.6-.5-.1-1.4-.2-2-.4-.4-.1-.4.6-1 .3-.5-.3 0-1.1-1-1.1.2-.6.9-.8 1-1.4-.1 0-.3.1-.3 0 0 .2 1-2.2.5-2.2.2 0 .1.3.1.5.7-.7.6-1.7 1.1-2.6.7-1.2 1.6-2.6 2.1-3.8 1.3-2.9 1.9-6 2.3-9.3.4-3.7.6-7.5.4-11.1-.1-2-.6-4.3-.9-6.3-.1-.6-1.4-4.6-2.4-3.4-.3-1.5.2-.5.6-1 .1-.1-.7-2.9-.9-3.3-.4-1.2-.9-2.4-1.5-3.4-.2-.3-.7-.2-.7-.2-.2-.3 0-.8-.2-1.1-.1-.3-1-2.7-1.1-2.6 1.2-2.1-4.2-9.2-5.9-11.4-.9-1.1-2-2.5-3.1-3.4-.3-.2-1 .1-1.3-.2-.3-.3-.1-1-.4-1.3-.8-.8-1.9-1.8-3-2.4-2.6-1.3-.3-.3-2.5.6 2-2.8-.5-3.1-3-4.2-2.1-1-4.7-2-6.6-2.4-4.3-.9-8.6-.7-12.9-.4-4.1.4-9.2 2.7-12.6 4.8-2 1.2-4.3 2.5-6 4.2-.6.6-1 1.6-1.3 2 0 0-2.9 2.2-2 2.2-.2-.1-.2-.2-.2-.4-.6-.3-3.9 5.3-4.1 5.7-.7 1.8-.7 3.9-.6 5.7.1 2 .6 3.8.7 5.8 0 .7.3 4.2.9 4.4.3.1.7.2 1.4.3 0 0-.3-1.3-.2-1.3.6.1.7.3.5.9 0 .3-.5 1-.5 1.1 0 .8.3.5.6 1.5.6 1.8.6 6.2 2.5 7.7 0-.1.1-.3.2-.3-.2-.1 1.4 2 1.6 1.5-.1.1-.3-.1-.5-.1.1.9 1.2 1.6 1.7 2.4.7 1.2 1.4 2.6 2.1 3.7 1.8 2.8 4.1 5 6.6 7.2 2.6 2.4 5.4 4.5 8.1 6.6 1.6 1.3 3.7 2.3 5.5 3.5.6.4 4.3 2 4.1.5 1.3.8.2.4.3 1.1 0 0 2.6 1.4 3 1.6 1.1.6 2.2 1.1 3.5 1.3.3.1.7-.4.7-.3.4.1.6.5.9.7.3.1 2.6 1.2 2.6 1.1.8 3.2 10 3.5 13.1 5 0-.1.2 1.3.6 1.2-.8.2-1.4-.1-2.2.3-.6.3-1.2 1.2-1.7 1.7-1.4 1.4-3.3 2.7-4.3 3.9-.6.6-2.5 1.4-3.3 1.9-.2.1-.8.5-1 .7-.2.2-.5.1-.7.4-.3.3-.5 1.4-.6 1.5.2-.2-4.6 1.1-3.5 1.1-.3.7-4.1 1.6-4.7 1.9-.5.2-4.7 2.7-4.9 1.8.1.2.2.3.3.4-.1.2-6 1.3-6.9 1.5-1.5.4-3.1.8-4.6 1.1-.2.1-3.6 1.2-3.7 1.1-.7-.2.4-.3-.8-.2-1.1.1-2.2.1-3.3.3-1.9.3-2.9.4-4.7.5-3.7.2-7.1.1-10.6-.1-3.6-.2-6.1-.4-9.7-.7-1.7-.1-3-.3-4.8-.7-1.2-.3-5.1-2.1-6.3-1.1.5-.3-2.5-.9-2.8-1-1-.2-1.8-.7-2.8-1-2.6-1-5.3-2.1-7.9-3.3-2.7-1.3-6-2.8-8.3-4.1-.8-.4-5.1-3.7-5-3.7-.4.2.9-.4.3-.2.2 0 .3.1.5.1l-.1-.3c.4.2 3.6-1.4 4.2-1.7 1.9-.9 3.7-1.9 5.5-2.8 2.5-1.2 3.9-1.9 6.5-3.2 2.2-1.1 4.1-1.9 6.3-3 1.2-.6 4-1.7 4.4-3 .5-1.5-.8-2.7-1.6-3.7 0 .1-1 1.2-1.1.7-.3-2.2-.2-2.7-1.6-4.5-1.2-1.5-2.1-3.4-3.3-4.6-.6-.8-1.3-2.6-1.9-3.5-.2-.4-.4-.8-.6-1.1-.3-.3-1.6-1.2-1.7-1.3-.2-.3-.2-2.2-.4-2.8-.1-.2-.7-1.5-.7-.7-.6-.3-.8-3.9-1.6-3.8.1 0 .1-.3.3-.1-.1-.1-1.4-.9-1-1.1.1 0 .5 0 .5.1-.1-.2-.3-.5-.4-.7 0 .1.8 1.3 1 1.4l-.3-.8c.2 1.4 3.3 2.2 4.5 2.8 1.5.8 3.1 1.8 4.7 2.5.4.2 3.7 1.1 3.9 1.3.4.5.1.5 1.2 1.1 1.1.6 2.4 1.2 3.6 1.7 1.9.7 3.9 1.7 6.1 2.6 3.8 1.5 7.4 3.1 11.2 4.3 1.9.6 4.5 1.6 6.8 2.1 2 .4 3.8.2 5.4.7 3.7 1 7.3 1.9 11.6 1.1-4.2-2.4-8.7-2.8-13.1-4-2-.6-4.2-1.3-6.3-1.7-.5-.1-1.6-.5-2.2-.5-.3 0 .4-1.2-.8-.6-.3.1-.6 1.7-.7 2.1.6-1.8.8-2-1-3-.9-.5-2.4-.6-3.4-1.1-2-.8-4.3-1.9-5.9-2.6-4.1-1.8-8-3.3-12-5.3-4.4-2.2-8.8-4.6-13.4-6.6-2.4-1-5.6-1-4.4 2.6.3.9.8 1.1 1 1.7 0 .1 1.1 3.5 1.4 2.9-.1.1-.3.1-.4 0-.6.4 4.8 9.2 5.3 9.9 1.1 1.7 2.2 3.3 3.2 5 .3.6 2.1 3.8 2.6 3.8-.2 0 1.4 0 1.4-.2 0-.1-.8-1.1-.6-1.1.5-.1.8.1.9.7 0 .3-.3 1.3-.3 1.2.1.3.8.7.9 1 .4.9 1.2.7 0 1.6-.8.6-3.2.1-4.1 1.3.1 0 .3.1.3.2s-1.9.8-1.6 1.4c-.1-.1.1-.3.2-.5-.3 0-.6.2-.9.2.5 0-2.3 1.1-2.7 1.2-1.6.5-2.8 1.1-4.4 1.7-3.1 1.3-6 2.9-9 4.4-2.9 1.4-8.3 3.2-4.5 6.9 1.7 1.6 4.1 2.7 6.1 4 .6.4 4.2 2 4.1.5 1.4.7.3.4.4 1.1 0 0 2.5 1.4 2.9 1.7 1 .6 2.3 1.1 3.5 1.3.9.2.7-.2 1.6.1.2.1 2.7 1.4 2.7 1.3.6 2.2 9.2 4 11.9 4.6 1.4.3 3.2.6 4.5.7.4 0 .8-.4 1.4-.4.3 0 .7.7 1.1.9 1.6.4 4.2.5 5.8.8 5 .8 10 .7 14.7.4 4.9-.3 10.1-.8 14.9-2.2 4.4-1.3 11.9-2.5 14.8-5.5 0 0 3.6-1.1 2.8-1.4.1.1.1.3 0 .4.7.7 9.2-4.9 10.2-5.6 1.6-1.2 2.9-2.5 4.6-3.7.6-.4 3.5-2.5 3.3-3.1 0 .2-.2-1.4-.5-1.4-.1 0-.7.6-.7.6.2.4-1.3-.1-.5-.4.3-.1 1.3-.4 1.6-.6-.3.3 1.2-.4 1.1-.3.1-.1 0-.8.2-.9.4-.2 1.1-.3 1.8-.2 3.6.2 7.8 1.4 12 1.6 3.5.2 6.9.6 10.3.6 1.4 0 3.6-.4 5.3-.5 2.2-.1 4.4.4 6.7.1-.1.4-.1.7 0 1 0 0 .2-.3.3-.2-.1-.1.1 2.5.6 2.2-.2 0-.2-.2-.4-.4-.3 1 .2 2 .1 3.1-.2 1.4-.3 3.1-.5 4.4-.5 3.5-.2 7.1-.2 10.6-.1 3.6 0 7-.3 10.5-.1 2.2.1 4.5 0 6.8 0 .7.3 4.9 1.6 4-.1 1.5-.4.5-.8.8-.1 0-.2 2.9-.2 3.5-.1 1.2 0 2.7.3 3.9.3 1 .4.6.5 1.6 0 .3-.3 3.2-.2 3.1-1.1 1.1-1.5 4.4 0 6.1 1.6 1.8 5.2 1.2 7.5 1.3 1.6 0 3.1.1 4.8 0 1.2-.1 1.9-.7 2.9-.8.6-.1 2 .6 2.8.6 1.2 0 2.5-.2 3.8 0 5 .8 10.6.5 15.6.6 2.5 0 5-.4 7.4-.3 2.8.1 5.6.4 8.5.2 2.8-.2 5.7-.1 8.6-.2 2.7 0 6.5.5 8.4-.5 0 0 3.8.4 3.3-.1 0 .2 0 .3-.2.4.2.6 10.6 0 11.6 0 2.1-.1 4.3-.1 6.4.1.7.1 4.6.4 4.9 0 .2-.3.3-.7.7-1.3-.1 0-1.5 0-1.4-.2.3-.5.6-.6 1.2-.3.2.1 1 1 .9 1 .6.1.8-.1 1.5-.1 1.1 0 2 0 2.8.2 1.2.3 4.4 1 5.7.5 0 0-.3-.2-.2-.3-.1.1 2.5-.1 2.2-.6 0 .2-.2.2-.4.4 1 .3 2-.2 3.1-.1 1.4.2 3.1.3 4.4.5 3.5.5 7.1.2 10.6.2 3.6.1 7 0 10.5.3 2.2.1 4.5-.1 6.8 0 .7 0 4.9-.3 4-1.6 1.5.1.5.4.8.8 0 0 3 .2 3.4.2 1.2.1 2.7 0 3.9-.3 1-.3.6-.4 1.6-.5.3 0 3.2.3 3.1.2 1.2 1.2 3.5.9 5.6.8 2.6 0 5 .2 7.6.2 1.6 0 3.5-.1 5-.3.4-.1.6-.7 1-.7.6 0 1 .7 1.5.8 1.3.2 4.2.1 5.7 0 3.9-.5 3.1-5.2 3.2-8.1.1-2.8.1-4.8.1-7.6 0-2.3-.4-4.7-.4-6.9-.1-2.9.5-5.9.3-8.9-.2-2.6 0-5.4-.1-8.2 0-2.8.5-7-.5-9 0 0 .4-3.8-.1-3.3.2 0 .3 0 .4.2.6-.2 0-10.6 0-11.6-.1-2.1-.1-4.3.1-6.4.1-.7.4-4.6 0-4.9-.3-.2-.7-.3-1.3-.7 0 .1 0 1.5-.2 1.4-.5-.3-.6-.6-.3-1.2.1-.2 1-1 1-.9.1-.6-.1-.8-.1-1.5 0-1.1 0-2 .2-2.8.3-1.2 1-4.4.6-5.7 0 0-.2.3-.3.2.1.1-.1-2.5-.6-2.2.2 0 .2.2.4.4.3-1-.2-2-.1-3.1.2-1.4.3-3.1.5-4.4.5-3.5.2-7.1.3-10.6.1-3.6 0-7 .3-10.5.1-2.2-.1-4.5 0-6.8 0-.7-.3-4.9-1.6-4 .1-1.5.4-.5.8-.8.1 0 .2-2.9.2-3.5.1-1.2 0-2.7-.3-3.9-.3-1-.4-.6-.5-1.6 0-.3.3-3.2.2-3.1 1.1-1.1 1.4-4.5 0-6.1-1.6-1.8-5.3-1.3-7.5-1.3-1.6 0-3.1-.1-4.8 0-1.1.1-1.8.8-2.7.9-.5.1-.9-.8-1.4-.8-.5 0-.8.3-1.3.3-1.2-.1-2.6 0-4-.1.8-.7.6-1.2 1.3-2 .4-.4 1.3-1 1.4-1.2 1.2-1.6 2.6-3.4 3.8-4.5.4-.3 4.6-4.2 5-4.2 1.4.1 3-2.1 4.2-2.9 1.3-.8 3.2-1.6 4.6-2.5 1.8-1.1 8.3-3.9 8.4-5.3 0 .5 4.2-1.2 5-1.5 1.3 3.5 5.3 6.7 7.7 9 1.7 1.7 5.1 7.8 8.4 7.4 3.9-.5 5.8-6.7 6.3-10.1.3-2 .6-9.3-1.7-10.5.1 0 .5 0 .5-.1 0 0-.8-1.5-.9-1.6 2.6 2.6 8.3 4.4 12.1 5.3 3.8.9 8.8 2 8.9-2.8.1-3.2-.8-6-2.3-8.3-.1-.2.3-.1.3-.2-.1 0-.4-.2-.5-.1l.2-.2c-.3-.1-.6-.3-.9-.5.3.3 1.4.1 1.8.2 1.7.2 3.7.6 5.4.8 2.7.3 4.6.6 7.4.5 9.6-.5 1.9-10.5-1.9-13.6 0 .1-.6 1.5-.9.9-.1-.3.3-1.6.6-1.5-.3 0-.5-.1-.8-.1h.4c-.3-.1-1-.2-1.1-.5 0-.1 1.5.3 1.6.4 0 0 .6-.5.7-.5 1.6-.3 4.1 0 5.9-.4 1.1-.3 2.1-.8 2.8-.9.2 0 4.3-.3 3.5-.5-.1.1 2.3-.7 2.2-.7 1.4-.3 2.8-.5 3.9-1.2.6-.3 4.8-3.5 5-3-.1-.1-.3-.2-.5-.3 0 0 3.3-2.5 3.8-3.1.8-1.1 1.5-1.9 2.4-3 1.1-1.4 2-3.2 2.8-4.8.3-.7.8-3.5 1.2-3.9 1.1-.7 2-3.9 2.8-5.8.7-1.5 1.6-2.7 3.6-3.6 3.8-1.9 8-3.2 12-4.6 2.2-.8 5.2-1.8 7.8-2.9 2-.8 3.7-2 5.4-2.6 3.3-1.5 8-3.2 11-5.1zm-80.1 46.4c-.2 0-.8-.1-.8-.3-.1-.3 1 .2.8.3zm-3.2-8.7c.2.1.2.3 0 .4-.2-.2-.2-.3 0-.4zm-.4-.3c0 .1.4.8 0 .7-.5-.1-.4-.7 0-.7zm-29.8-17.1c0-.2.1-.4.3-.5.4.1.1.5 0 .7-.3.2-.4.1-.3-.2zm40.8-57.4c.1-.2.2-.4.5-.4.7.3-.8 1.2-.5.4zM384 21.6c.2.2.3.3.2.5-.4-.2-.3-.6-.2-.5zm-36.6 15.8c.3.2-.3.4-.5.3-.2-.3.4-.4.5-.3zm-28 38.3c.2-.2.5.4.5.5-.4-.1-1.1.1-.5-.5zm0 .6c.2.2.2.3-.1.4-.3-.2-.2-.3.1-.4zm-.9 11.7c.3-.6.8.6.2.6-.2-.2-.2-.4-.2-.6zM46.6 207.7c.2.2.2.4-.1.4-.2-.3-.2-.4.1-.4zm-1-.3c.1-.2.3-.3.6-.3 0 .1.1.6 0 .6-.2.2-.7 0-.6-.3zm-19.2 7.3c-.2.4-.5-.3-.4-.5.2-.3.4.4.4.5zm-16.8 26c-.3.4-.2-.5-.2-.6.4.2.4.3.2.6zm28.8 11.4c-.2.1-.4 0-.5-.2 0-.3 1.2-.2 1 0-.2.2-.3.2-.5.2zm14.1-.4c-.3-.1-.3-.3 0-.4.3.1.3.3 0 .4zm.6.3c0-.1-.3-.5-.2-.6.2-.2.4-.2.6 0 .3.1-.4.6-.4.6zm56.7-19.1c-.1.2-.3.2-.5.2-.5 0 .8-.7.5-.2zm12.4-44.9c.4-.1-.1.5-.3.5-.2-.3-.1-.4.3-.5zm-13.9-27.9c.2 0 1.1.1.8.6-.2.3-1.1-.6-.8-.6zm-25 12.4c4 3.6 9 8.5 10 14.4-1 .5 1.8 8.4 1.7 9.7-.1 1-.7 2.4-1 3.5-.2.8-.1 1.6-.3 2.4-.1.2-1.4 3-1.4 1.7 0-.6.1-.7-.5-1.9-.9-1.7-1.9-3.3-2.7-4.9-.8-1.7-1.7-4.5-2.3-6.6-.7-2.4-1.4-4.7-1.9-7.2-.4-2.1-.4-5.7-1.6-7.1-.1-.5.1-2.9 0-4zm.7 11.9c.4-.7.4 1 .3.7-.2-.5-.7 0-.3-.7zm-.1-.5c0-.4.2-.4.4-.1-.1.4-.3.5-.4.1zm-28.3-2.3c-.2.3-.4-.4-.2-.6.3-.3.3.5.2.6zm30.3 36.2c-.3.4-.2-.5-.2-.6.4.1.5.3.2.6zm23.8 7.6c-.8-.3-2.5-.8-3.2-.3.3-.3-4.1-1.4-4.6-1.7-2.3-1-4.7-1.8-7-3-4.1-2-8.3-3.9-12.1-6.2-7.7-4.7-14.6-11.4-19.6-18.2-2.5-3.4-3.7-7.4-5.7-11.4-.1.1-1.4.8-1.2.3.2-.7.8-1.1.9-1.8.1-.8-.4-1.7-.6-2.4-.5-2-.6-4.2-1.2-5.9-.4-.7.3-4 .2-4.9 0-.1.1-1.3.1-1.3-.4-.2-.5-.5-.2-.7.3 0 .6 0 .9-.1.2-.3 1.9-2.4 1.3-2.2 0-.7 3.1-3 3.5-3.5.4-.4 3.6-3.9 4-3.1-.1-.1-.2-.2-.4-.3 0-.3 5.6-2.9 6.5-3.2 1.4-.5 2.9-1.1 4.3-1.6.3-.1 3.1-1.3 3.2-1.2.6.3 2.8.5 4.2 0-1.7 2.2-1.7 4.9-2.2 7.5-.5 2.5-1.2 5-1.3 7.6-.2 2.4.7 4.7.8 6.8.1 2.2 0 4.2.6 6.7 1.4 6 2.4 10.9 4.5 16.5.9 2.4 2.3 4.6 3.5 6.9 1.4 2.7 3.4 5.3 5.3 7.7 2.9 3.6 9.9 11.9 14.4 11.9.7.2 1.2 1.2 1.8 1.5-.2-.2-.4-.3-.7-.4zm2.3.6c-.5-.1-1-.2-1.4-.3.1 0 1.6.4 1.4.3zm2.6 3.5c-.2.1-.4 0-.5-.2 0-.3 1.2-.2 1 0-.2.2-.3.2-.5.2zm2.9-9.4c-.4.4-1.9 4.8-2.4 4.6-1.7-1.2-3.7-2.5-5.6-3.4-.4-.2-5.4-2.6-4.7-3.3-.1.2-.2.3-.1.5-.1 0-3.6-3.8-4-4.2-1-1-2-2-3.1-3.4-.6-.7-3.6-4-3.7-4.9 0-.6 2.3-3.1 2.6-3.9.8-2.7 1.4-6.5 1.3-9-.1-1.6-.5-2.9-1-4.3-.3-.8-.4-2.1-.8-3-.2.1-.4.1-.6.2-.1-.5-.5-1-.8-1.6-.3-.6-.2-.7-.5-1.4-.6-1.5-1.4-2.8-2.5-4.1-.8-1-2.1-2.3-2.7-3.3-.9-1.4-.7-1.6.1-2.9.8-1.3.8-3.1 1.4-4.1.4-.8 3.5-2.6 3.5-3.8-.2-.2-1.3-.9-1.2-1 .5.4 1 .9 1.6 1.3.3-.1 1.5-1.9 1.8-2.1.4-.6.7-2.1 1-2.3.2-.2 1.2-.3 1.5-.5.8-.5.9-.9 1.5-1.5.4-.4 1-1.3 1.6-1.2 1.1.1 3.1 2.7 3.8 3.4 1 1.1 2 1.7 3 3 .8 1 2.6 4.8 4.1 4.8-.1 0 2.3 4.2 2.6 4.8 1.1 2.1 2.2 4.4 3.1 6.7 1.8 4.7 3.4 9.7 3.7 14.6.3 5.2 0 9.7-.9 15.1-.5 3.2-1.2 7.6-3.6 10.2zm263.9-112.9c-.7-.6.7.6 0 0zm3.3-9.9c.2-.1.2-.3.5-.3.7.1-.9.8-.5.3zm-31 1.3c.1-.1.6.1.5.2-.1.3-.8 0-.5-.2zm-6.2-15.1c-.2 0-.4-.2-.5-.4.3-.2.5.1.5.4zM370.1 54c-.2-.3-.1-.4.2-.3.1.2.1.3-.2.3zm.8-.4c-.1 0-.9-.1-.6-.4.3-.3.8 0 .6.4zm-24.7 5.8c0 .1 0 .1 0 0zM340 70.8c.1-.3.2-.3.4-.2.2.2-.5.7-.4.2zm-4.4 18.1c-.1.3.8-1.8.2-1.3 1.7-1.3 2-4.4 2.5-6.1.7-2.4 1.8-4.9 2.2-7.5-.1 0-1.5-.1-1.2-.4 1.5-1.2 1.7-1 2.2-2.9.4-1.6 1-3.2 1.2-4.6 0 0 1.7-1.8 1.9-2 .3-.4 1.3-2 1.4-2.1-.5.4 4.3-.8 3-.8.3-.4 3-1.4 3.6-1.8.9-.5 1.5-.9 2.5-1.4.3-.1.3-.3.5-.5.4-.3.8.2 1.1 0 .4-.3-.2-.3-.2-.5-.1.3 11.5-5.8 11.6-5.7.6.2 2.3 0 2.9-1.1 0 .1-.2.3-.2.3 0-.1.4-.4.5-.5-.1.2-.2.5-.4.6.1-.1.2-.1.2-.2-.1.1-.5.6-.2.4-1.1.3-3.1 5.4-3.8 6.8-.9 1.8-2.1 3.6-2.8 5.6-.8 1.9-.8 2.6-1.9 4-1.9 2.4-1.9 5.7-4.6 7.6-3.5 2.5-7.4 5-11.1 7.3-1.4.9-3.4 2.1-5.2 3.1-1.1.7-5.8 3.1-5.9 3.7zm-.4.6c0 .1 0 .1-.1.2-.1-.1-.1-.2.1-.2zm-13.4 15.6c.2 0 .4.2.4.4-.3.2-.5-.1-.4-.4zm-41-37.5c.2-.4.4.4.3.5-.2.3-.3-.4-.3-.5zM241 51.3c.2.1.4.2.4.5-.4.1-.6-.2-.4-.5zm-15 22.8c-.1.8-1-.4-.4-.6.2.1.3.3.4.6zm2.9 9.4c-.3-.7-.3-2 0-2.4-.7-1.7-.7-5.1-.8-6.8-.1-2 1.5-7.2.2-8.5 0 0 1.4-4.1 1.7-4.7.9-1.8 2.2-3.7 4-5 3.4-2.4 7.6-3.6 11.5-4 7.9-.8 17.2 1.2 23.6 4.9 3.7 2.1 6.3 4.8 9.1 8.4 0-.1 1-1.2 1.1-.6.1.7-.5 1.3-.4 2 .1.7.8 1.5 1.2 2 1 1.7 1.8 3.6 2.8 5 .4.8.7 2.6 1.1 3.5.2.4.2.8.4 1.1.2.3 1.2 1.4 1.3 1.5-.1-.3-.1 4.6.2 3.5.4.3.5 4.2.7 4.8.1.6 1.2 5 .4 4.9.2 0 .3-.1.5-.2.1.1-.4 5.8-.5 6.6-.1 1.5-.3 3-.4 4.4 0 .3-.1 3.6-.1 3.6-.6.4-.6.5-.9 1.8-.1.4-.9 3.9-.8 3.9-1 .3-3.3 7.5-4.1 8.9-1.5 2.8-2.9 5.2-4.5 7.6-1.1 1.5-2.8 3.3-3.7 4.9-.9 1.8-.8 1.8-2.3 3-1.2.9-2 2-3 3-1.1 1.1-2.5 2.2-3.4 3.6-.8-1.5-2.2-2.1-3.6-3.2-.9-.6-1.7-1.8-2.8-2.1.3-1 1.6-2.5 1.9-3.3.5-1.5.4-3.3.6-4.5 0 .2.7-4.9.5-4.8.2 0 .3 0 .5-.1-.7-.4-.1-6-.2-6.9-.1-.8-.1-1.7-.1-2.8 0-.7-.6-3.9-.7-3.7.2-.5.8-.6-.2-1 .7.2.5-3.8.4-4.3 0-.2.1-4 0-4-.2-.1-1.2-.5-1.5-.2 0 0 .3.8-.5.3-.3-.2 1.5-1 1.5-.8 0-.7-.5-.9-.3-1.7.1-.7 1.3-1.3.4-1.7-.3-.1.4-.3.3-.3-.3-.2-.7-.2-.9-.5.3.3.4-.1.6-.2 0 0-.6-.1-.5-.1.3-.5.1-.4.1-.6.1-.3.9-1.1 1-1.3.5-1.7.2-4.1.7-6.2.3-1 2.6-5.6 0-5.6 0-.6.7-.1.9-.1.2 0 0-.9 0-.9.1-.1 1.1-.3 1.1-.6 0-.2-.9-1.4-.9-1.5.1-.2.5-.3.8-.2-.7 0 .5-.6.5-.6s-.3-.2-.3-.3c1.1 1 1.6-1.7 2-2.4.2-.3 2.7-3.5 1.6-3.6.8 0 1.8-.9 1.5-1.7-.2.2.7-.9.4-1 1.2.4 2.3-1.2 3.2-1.7 1.1-.8 2.6-1.6 3-3.7-1.4-.2-4.5 1.1-4.4 2.6-.1-.7-3.5 2.1-3.7 2.4l-.3-.3c0 .1-1.7 2.4-1.7 2.5-.6.6-2.7 2.5-1.8 3.3-.6-.6-4.6 12.8-4.8 12.9-.2.2-.7 6.1-.8 6 0 0 .6.2.5.2-1.2.8-.6 5.3-.6 6.8.2 0 1.2.1 1.3.1-2.1 1.1-1.2 1.8-1.6 3.9.1.1.3.1.5.1-.1-.3-.2 1.5-.2 1.6.2.8.5.6.8 1.2-.1-.2-1 1.1-1 1.5 0 .1.5 0 .5 0-.3.5.3 3.7.4 3.6-.1.1-.8.3-.8.4.1.2.4 0 .6 0-.8-.2-.1 6.2.1 6.1 0 0-.6 0-.6.1 0 0 0 2.5.4 2.4-.8.2-1 11.1-.3 11.1-1 .1-.9 1.6-1.2 2-.2.4.2 1-.2 1.2-.3.2-3.2-1-3.7-1.1-1-.1-1.7 0-2.7 0-.4 0 0-.5-1-.4.2 0-.7.8-.8.8-.6.1-2.1.5-2.6 0 .1.1-.6-5.3-.8-5.9-1.7-5.6-3.5-11-6.1-16.2-2-4.2-5.3-10.3-6.2-15.7-.4-2.5-1.3-5.2-1.8-7.2-.7-2.2-.1-6.2-1.3-8.8zm52.2 39.7c-.3-.7 1-.6.6.1-.1 0-.5 0-.6-.1zm.1.4c-.3.2-.4.1-.3-.2.2-.1.4 0 .3.2zm-19.8 27.3c.6 1.8-1.3 6.6-1.7 8.3-.6 2.7-2.1 6.1-3.5 9-1.3 2.5-2.7 5-4.3 7.7-.6 1.1-1.2 2.5-1.9 3.7-.6 1-3.4 3.7-2.9 5.1-.1-.3-2.7 3.4-3.1 3.8-1.7 1.9-3.2 3.9-5.1 5.7-3.3 3.2-6.5 6.4-10 9.1-6.9 5.3-15.5 10.2-23.2 13.2-4.1 1.6-8.2 3-12.7 4.5.1.1.8 1.4.3 1.2-.9-.2-1.2-.8-2.1-.9-.7 0-1.7.5-2.4.7-1.9.6-4.2 1-5.7 1.7-1.2.6-4.1.2-5.3.8-.4.2-1.1.6-1.4.7-.2 0-.1.5-.5.6-.1 0-.5-.6-.7-.6-.4 0-3.2.4-2.6.6l-3 .4c4.5-2.5 9.6-4.3 14.2-6.7 1.9-1 3.6-2.5 5.4-3.7 0 0 6.4-4.8 4.3-5.2 1.2-1.1.8-.1 1.3 0 .2 0 2.4-2.2 2.9-2.4 1.3-.7 2.6-2 3.4-3.3.6-.9.1-.9.9-1.8.2-.3 2.6-2.6 2.6-2.6 3.1-.4 6.8-7.2 9-10.1.9-1.3 1.8-2.5 2.6-3.8.5-.7 1.1-1.7 1.4-2.4.2-.4-.3-1.1-.1-1.5.6-1.1 1.9-1.6 2.5-2.9.4-.9 1.8-3.4 1.4-3.9.5-.7.3-1.1.7-1.8.6-1.2.9-1.5 1.7-2.6 1.1-1.5 2.1-4.2 2.6-5.9 1.5-4.9 5.3-10.5 4.4-15.9 3.1.4 7.7-.1 11.2-.1 0-.1-.4-1.6.1-1.3.8.5 1 1.1 1.9 1.4.7.2 1.9.1 2.7 0 2.2-.2 4.5.2 6.4-.3 1.4 0 3.3.3 4.8.2.7-.1 2-.3 2.6-.2.4 0 .2-1.1.9-.2.7.5-.3.7 0 1.7zm-7.8 27.1c.5-.7.6.9 0 .8-.1-.3-.1-.5 0-.8zm-20.1 23.7c-.3 0-.4-.1-.6-.3.3-.2.6-.1.6.3zM190.2 223c0 .3-.7 0-.7.1-.2-.3.7-.5.7-.1zm.7-10.9c.2-.3.4-.3.7 0 .1.2-.5.3-.7 0zm25.8-28.3c.6-.8.5 1-.1.9-.3-.1.4-1.2.1-.9zm29.2-35.6c.1-.2.7.1.7.1.2.3-.8.3-.7-.1zm14.4-1.9c-2.8 0-5.6.2-8.3.3-1 0-7-1.2-7.7-.3-.2.3-.3.7-.7 1.3 0 0 1.4 0 1.3.2-.2.5-.4.7-1 .4-1.4-.7-.8-.9-2.3-1.1-.3 0-.9.5-1.3.5-.5 0-1.3-.6-1.3-.6-1.5-.3-3.6-.5-5.3-.5 1.1-1.9 4-4.4 5.7-5.3.7-.4 2.2-.9 3.5-1.1 1.4-.3 4 .1 5.2-.4.5 1.2 7.5 1.5 8.8 2.2.9.5 1.7 1.5 2.6 2.3.9.7 2.8 1.2 3.3 2.4-.8-.2-1.7-.3-2.5-.3zm2.7 3c.1.2.2.6.1.9-.2-.3-.3-.7-.4-1 0-.1.1 0 .3.1zm-.1 4.4c.3-.3.1.5.1.6-.1-.2-.2-.4-.1-.6zm-4.6-25.7s-.8.1-.7 0c.1-.3.7-.2.7 0zm-.2-23.9c.7-.2-.7.2 0 0zm-.1 24.1c-.1.2-.3.3 0 0zm2.4-42.9c.1-.2.4 0 .6.1-.2.1-.4 0-.6-.1zm6.2-10.1c-.1.3-.6-.4-.4-.5.2-.1.4.3.4.5zm-35.2 31.4c.3.1.3.2.2.5-.4-.1-.4-.2-.2-.5zm-.2-.1c-.3-.1-.4-.3-.3-.7 0-.4.8.2.7.2-.1.1-.3.5-.4.5zM180 66.2c.1 0 .9.1.7.2-.3.2-1.1 0-.7-.2zm-14.1 46.3c-.2.1-.1-.5.2-.6.2.2.1.4-.2.6zm23.5 26.4c-.2 0-1.2.1-1-.5.2-.4 1.2.5 1 .5zm15 4.7c-1.1-.6-6.1-1.6-6.4-3-2.2-.2-5.6-2.6-7.4-3.6-1.9-1.1-6.4-6.2-8.6-5.8.1 0-3.8-3.7-4.3-4.2-1.8-2.2-3.8-4.2-5.5-6.6-3.2-4.5-5.8-9.2-7.4-14.2-2.9-9.3-2.5-20.3 1.8-28.6 2.1-4.1 5.2-7.2 9.8-9.2-.1 0-1-1.3-.4-1.2.9.1 1.4.7 2.3.7.8 0 1.8-.4 2.6-.6 2.1-.5 4.7-.2 6.5-.4 1.2-.2 4.4 1.4 5.8 1.5.4 0 1.4 0 1.7.1.1 0 .4-.4.8-.2.1 0 .2.8.4.9.4.2 3.2 1.4 2.8 1 1.2 0 3.9 2.3 5 2.9.5.3 5.4 2.8 4.8 3.4.1-.1.2-.3.2-.5-.2 0 3 3.1 3.4 3.5 1 .8 1.2 1.2 2.1 2.2l3.6 4.2c.3.4 2.8 2.8 2.8 3.1.1.5-.1.6.6 1.7.9 1.5 2.1 2.8 3.1 4.3 1.1 1.6 2.2 4.2 3.3 6.2 2.1 3.9 4.2 8 5.9 12 .9 2 2 4.7 3.1 6.9 1 2 2.2 3.7 2.9 5.4.6 1.6.7 3.7 1.5 5.4.5 1 3.7 5.7 3.1 6.5-.2.2-2.2.2-2.5.2-.6.2-1.5.8-2.1 1.1-1.2.6-2.1 1.3-3.1 2-1.2 1-2.2 1.5-3.1 2.6-.4.6-2.4 4.2-2.6 3.8 0-.2.2-.2.4-.4-.9-.3-1.5.1-2.5.1-.7 0-2.1-.1-3.1-.2-2.5-.2-5.7-.4-8.6-.6-4.5 0-8.7-.4-12.7-2.4zm-10.1 3.9c.2.1.3.3.3.6-.4 0-.7-.3-.3-.6zm-33-.8c.2-.2.4-.1.6.1.1.4-1.2.3-1 .2 0-.2.2-.3.4-.3zm-9.3 6.4c.3.2.3.3 0 .5-.3-.2-.3-.3 0-.5zm-.4.9c.1-.1.3-.2.5-.2.2.2.2.4 0 .7-.1.1-.9-.4-.5-.5zm-.2 65.6c-.2-.1.1-.7.1-.7.3-.2.2.8-.1.7zm-.2 51.7c-.3.2-.4.2-.6-.1.3-.2 1-.2.6.1zm.2-47.8c-.3 0 1.2-1.7 1.2-1.9.3-.8.1-2 .1-2.7-.1-2.3.1-4.8-.3-6.6 0-1.4.9-3.4.1-4.9 3.7 2.1 7.9.8 11.5 1.2 1.9.3 4.3.2 6.2 0 1.3-.1 2.8-.2 3.6-.3 1.6-.3 2.1-.4 4 0 1.6.4 4.3 0 6-.2 4-.5 8 .8 12-1.5-3.7-1.1-7.8-.6-11.3-.4-2.8.2-7.6-1.3-10.7-.4-.5-1.8-9.4.3-10.8.3-3.2 0-7-.6-10.4.7 0-.6-.2-1.4-.3-1.9-.5 0-.7-.3-.5-.7.3-.2.5-.4.7-.7 0-.5.2-3.5-.1-2.9v-2.1c.1-1.3.5-2.6.3-3.9-.1-.5-.9-5.3-.1-5.1-.2 0-.3.1-.5.2.2.1.4-4 .4-4.5 0-1.2.1-1.9.1-3.1 0-1.7.1-3.5 0-5.1 0-.5-.6-3.8-.4-4.1.3-.5.3-.2.4-1.3.2-1.4.2-3.1.1-4.5-.1-1.9-.1-3.8 0-6.1.1-2 0-4.1.1-5.9 0-.8-.5-4.7-.2-5.2.1-.1.1.1.3-.4 2.1.4 5.2 0 7.5 0h4.1c1.2 0 5.2.6 6.1-.6 0 .1 5.2.2 5.9.2 2.6.1 5.3-.1 8 0 5.5.2 10.7-.2 16.1-.1 6 .1 11.3.4 17.5.3 1.8 0 4.1-.2 5.3-.2 1.7 0 4.9 1 6.7.3-1.6 2.4-2 5.8-3 8.3-.7 1.8-.9 3.6-1.5 5.3-.6 1.6-2.3 3.8-3.2 5.6-.4.8-2.4 6-3.3 6-.5 2.5-2.9 5.2-4.2 7.4-1.5 2.3-3.2 5.2-4.9 7.7a76.6 76.6 0 0 1-10.5 12.8c-9 8.8-18.1 15.8-29.6 20.3-3 1.2-6.5 2.6-9.1 3.3-2.1.5-6.5.4-8.6 1.6-.1-1.4 0-3 0-4.3 0 .1-.5.1-.8.1zm12.4 70c-.2.2-.4.1-.6-.1-.1-.4 1.2-.3 1-.2-.1.2-.2.3-.4.3zm14.9-1.9c-.3-.1-.3-.3 0-.4.3.2.3.3 0 .4zm.6.3c-.1-.1-.3-.5-.2-.6.2-.2.4-.2.7 0 .3.2-.5.6-.5.6zm47-12.1s-.7.2-.6 0c.2-.4.8 0 .6 0zm-.1.3c-.3.6.1-.3 0 0zm.4-26.5c0 .6 0-.4 0 0zm18.2 38.5c-.2 0-.4-.1-.6-.2-.3-.5 1.2.1.6.2zm18.5-7.7c.1 0-.5 3-.4 3.5.3 2.2 1.6 2.6-.9 2.9-4.2.6-8.9.1-13.4.1 0 .1.4 1.6-.1 1.3-.8-.5-1-1.1-1.9-1.4-.7-.2-1.9-.1-2.7 0-2.2.2-4.5-.2-6.4.3-1.1 0-2.7-.4-4.1-.4-1.1 0-2.6.7-3.5.7-2.4.2-1.5-2.3-1.5-3.5-.1-1.5-.3-3.5-.4-4.7 0 .2.4-5.2.2-5.1.2 0 .3-.1.5-.1-.8-.5-.2-7.2-.2-8.2-.1-1.8.3-7.1-.8-7.6.5.2.7-4.2.6-4.8-.1-1.1-.1-1.6-.1-2.4 0-.3.2-1.9 0-2-.2-.1-1.2-.5-1.5-.2.1-.1.3.9-.5.4-.4-.3 1.5-1 1.5-.9 0-.3-.9-.4-.7-.8.2-.7.2-.4.3-1 .1-.7 1.2-1.5.4-1.9-.3-.1.4-.3.3-.4-.3-.2-.7-.2-.9-.5.3.3.4-.1.6-.3l-.6-.1c.3-.5 0-.5.1-.6.1-.3.9-1.3.9-1.6.4-2.1-.3-4.6 0-6.9.1-1.1 1.4-6.9-1.2-6.2-.2-.7.6-.3.8-.3-.6.2.4-1.9.4-1.7 0-.5-1.2-1.7-1.2-1.6.1-.6.6-.9.8-1.4 0 0-.3-.1-.4-.1 1.1.4 1-4.3 1.1-5.3 0-.5-.1-1.5-.2-2 0-.2-.7-.1-.7-.6 0-.2.7-.3.7-.5-.2-2.1-.4-2.1-3.1-2.1.2.2.3 2.9.3 3.1 0 .9-.9 3.6.3 4-.3-.1-.2 9.7-.2 10.4.1 2.1-.1 3.8-.1 5.4 0 .9-.5 5.2-.3 5.3 0 0 .6.1.5.2-.9.7-.4 3.1-.4 3.6 0 .8-.6 5.1 1.2 3.8-1.5 1.1-1.2.4-1.4 1.8-.2.9-.1 2 .3 2.6 0 .4-.4 1.1-.3 1.7.2.8.6.7.8 1.4-.1-.1-1.1 1.1-1 1.6 0 .1.5 0 .5 0-.4.7.4 4 .4 4-.1.1-.8.3-.8.4.1.2.4 0 .6 0-.9-.3-.2 6.9-.1 6.8 0 0-.6 0-.6.1s.1 2.7.4 2.6c-.4.1-.6 5-.6 5.9 0 .3.4 7 1.4 6.5-.8.5-.9 3.2-.3 3.6h-2.1c-1.3-.1-2.6-.5-3.9-.3-.5.1-5.3.9-5.1.1 0 .2.1.3.2.5.1-.2-4-.4-4.5-.4-1.2 0-1.9-.1-3.1-.1-1.7 0-3.5-.1-5.1 0-.5 0-3.8.6-4.1.4-.7-.3.3-.3-1-.4-1.1-.1-2.3-.2-3.4-.2-2 0-3.2.1-5.2.1-4-.1-7.8-.2-11.7-.3-3.4 0-6.8.3-10.2.3-2 0-3.4.2-5.3.2-1.4 0-5.9-.9-6.9.4.4-.5-1.5-.4-1.5-.4-.8-.5-.4-.2-.7-1.2-.2-1 .1-2.3.1-3.3 0-1.8-.1-3.6 0-5.4.2-6.3-.4-12 0-18.2.5-9.7.1-19.9.1-29.2 0-3.6 3.3-2.4 6.1-2.8 2.6-.3 8.1-.1 9.6-1.6 0 0 3.7 0 3-.6.1.2 0 .3-.1.4.4.8 9.8-1.7 10.8-2 1.7-.5 3.8-.8 5.4-1.1.8-.1 4.8-.8 5-1.3.1-.2.2-.8.3-1.4-.1 0-1.3.4-1.3.2.1-.5.4-.7 1-.6.3.1 1.1.7 1.1.7.6 0 .7-.3 1.3-.5.9-.2 1.8-.5 2.6-.6 1.3-.2 4.1-.4 5.3-1.3-.1 0-.3-.1-.2-.2 0 0 2.1-.7 1.8-1.3.1.2-.1.3-.2.5 1.1 0 .7-.6 1.7-.9.8-.3 1.2-.1 2.1-.4 2.2-.5 4.6-1.6 6.8-2.7 1.7-.8 3.4-1.9 5.2-2.9.7-.4 5.6-4.2 6.3-3.8.4.3-.2 1.8.6 2.3-.3-.2-1.1 4.2-.8 4.6h2.4c.1-.3-.7-.7-.6-1.1.1-.3.4-.5.5-.9.1-1.2.1-2 .2-3.1 0-1.2-.5-2.3.5-3.6.6-.7 8.8-6.6 6.4-7.1 1.2-.9.5-.1 1.1.1 0 0 2.2-1.8 2.5-2.1.9-.7 1.8-1.8 2.4-2.8.5-.8.1-.7.7-1.5.2-.2 2.3-2.1 2.1-2.1 2.3.3 6-6.3 7.5-8.5 1.1-1.7 2.2-3.6 2.9-5.3.2-.4 0-.9.2-1.3.1-.3.9-.3 1.1-.5.5-.8.6-1.8 1-2.7 1.2-2.5 1.5-4.5 2.7-6.7 1.2-2.2 1.8-4.3 2.3-6.6.2-.9 1.8-4.8 1.6-5.7.7 1 .4 3.2.2 4.3-.3 2-.3 4.1-.4 6.1-.1 1.4.1 3.8.1 5.2 0 1.4-1.2 5.9.3 6.7-.6-.2-.2 3.1-.1 3.5 0 1.6-.1 3.1-.2 4.8-.1 3.1 0 6.5.1 9.4.1 3.6-.1 6.2-.2 9.4-.1 1.9 0 3.7 0 5.5 0 .3.1 3.2.3 3-.9 1.2-.4 4.1-.4 5.4v6.9c.1 0 1.5-.2 1.3.1-1.1 1.4-1.5 1.1-1.5 2.9 0 1.6-.1 3.2.3 4.4 0 .7-.3 2.1-.2 2.9 0 .3-.1.6 0 .8.1.2.8 1.5.9 1.5-.1-.5-1.5 3.5-.6 2.6.2.3-.1 3-.1 3.5 0 .9.1 1.5.1 2.4 0 .3.2.4.2.6.1.5-.6.6-.5.8.1.4.4 0 .6 0-.5-.3-.1 11.3-.1 11.3-.1.1-.7-.1-.6.1.1.2.2 4.5.4 4.4-1 .4-.5 8.6-.5 10.3 0 1.7.1 3 .2 4.7 0 1.2-.1 2.7.3 3.9-.2-.2.5 2.2.2 2zm-36.6-51.6c0-.3.4-.2.6-.1-.2.1-.4.2-.6.1zm1.4-13.2c.1.3-.7 0-.6-.2.1-.3.6 0 .6.2zm37.4-49.1c.1.4-.9-.1-.6-.4.4-.2.6.2.6.4zm-1.4 22c.2-.1.4-.1.6 0-.4.2-.7 0-.6 0zm-.9 79.1c.2-.2.3-.2.4 0-.2.2-.3.2-.4 0zm.5-.4s-.7.3-.6 0c.2-.7.8-.1.6 0zm.3-43.8c0 .9 0-.8 0 0zm32.6 65.4c-.2-.1-.3-.3-.3-.6.4 0 .6.3.3.6zm33 .7c-.2.2-.4.1-.6-.1-.1-.4 1.2-.3 1-.2-.1.2-.2.3-.4.3zm9.2-6.4c-.3-.2-.3-.3 0-.5.3.2.3.4 0 .5zm.4-.8c-.1.1-.3.2-.5.2-.2-.2-.2-.4 0-.7.2-.2.9.3.5.5zm.3-65.7c.2.1-.1.7-.1.7-.3.2-.3-.8.1-.7zm.1-51.7c.3-.2.4-.2.6.1-.3.2-1 .2-.6-.1zm-.6 47.8c.4-.1.6 0 .6.3-.5.8-1.1 1-1.4 1.9-.2.7-.1 1.9 0 2.7.2 2.2-.2 4.5.3 6.4 0 1.6-.4 3.7-.3 5.4 0 .5.2 1.4.2 1.9 0 .2.6.2.6.5 0 .4-.5.3-.6.6 0 .3-.5 3.8-.1 3.1v2.1c-.1 1.3-.5 2.6-.3 3.9.1.5.9 5.3.1 5.1.2 0 .3-.1.5-.2-.2-.1-.4 4-.4 4.5 0 1.2-.1 1.9-.1 3.1 0 1.7-.1 3.5 0 5.1 0 .5.6 3.8.4 4.1-.3.5-.3.2-.4 1.3-.2 1.4-.2 3.1-.1 4.5.1 1.9.1 3.8 0 6.1-.1 2 0 4.1-.1 5.9 0 .8.5 4.7.2 5.2-.1.1-.1-.1-.3.4-2.1.1-5.1-.1-7.5-.1h-4.1c-1.2 0-5.2-.6-6.1.6.2-.2-4.7-.1-5.3-.1-2.7-.1-5.4 0-8.2-.1-4.5-.2-9.2.3-13.3.1-5.4-.3-10-.4-15.2-.3-2.7 0-5.6.2-8.2.2-.8 0-1.6-.2-2.5-.3-.6-.1.2.7-.8.3-.3-.1-.7-.3-1.1-.2.1-1.9-.1-3.5-.2-5.4-.1-2 .7-4 .4-6.3-.2-1.7-.1-2.4.1-4.1.1-1.2 0-2.5 0-3.7 0-.4-.2-3.3-.2-3.3.9-1.3.3-4.5.2-6.3 0-2 .1-4.3.1-6.6-.1-2.7 1.1-10.1-.6-11.8 0 0 .6-2.6-.1-2.2.2 0 .3 0 .4.1 0 0 .2-7.4.2-8.2-.2-1.6-.1-2.5 0-3.9 0-.4.3-3.2 0-3.3-.4-.2-.6-.3-1.3-.5-.1.1-1.2 1.5-.5.1.1-.2 1-.6 1-.6.1-.4-.4-.7-.3-1.2.2-1.1 1.4-4.8.6-5.4.1.1 0-1.5-.6-1.5.2 0 .2.1.4.2.1-.2.1-.4.2-.6-.1.2-.2-2.6-.1-3.3.2-1.3.6-3.2.6-4.9.5.2 2.6.2 2.9.2.2 0 4 .1 3.6-.7.2.8 1.6.5 2.2.6.1 0 2.9.2 2.7-.1 0 .2 0 .3.1.5.3-.7 5.7-.1 6.6-.2.8-.1 1.6-.1 2.7-.1.6 0 3.7-.5 3.6-.6.5.2.5.9 1-.1-.3.6 3.7.7 4.2.6.3 0 .9-.3 1.1-.3.5 0 .7.3 1 .3.2 0 1.7.2 1.7 0 .1-.2.4-1.2.1-1.5.1.1-.8.3-.3-.5.2-.3.9 1.5.8 1.5.2 0 .3-.9.7-.7.7.3.3.3.9.3.6.1 1.3 1.2 1.6.4.1-.3.3.4.3.3.2-.3.2-.7.4-.9-.3.3.1.4.2.6l.1-.6c.5.3.4 0 .6.1.3.1 1.1.9 1.4.9 1.7.3 4-.2 6 0 1 .1 6.1 1.4 5.4-1.2.6-.1.3.6.3.8 0 .2.8-.3.8-.3.1.1.6.9.9.8-.2.1 1.6-1.4 1.1-1.4.2 0 .4.4.5.6.6-.3.2-.1.7.2 0 0 .1-.3.1-.4-.7 2 7.1.5 6.9.1.3.7 2.8 1 3.2-.4-.4.8 3.3.7 3.6.7.2 0 2.3-.6 2.7-.2.2.3.1 2.9.1 3.5 0 1.7-.1 3.7-.1 5.4.1.7.8.5.8.5zm-63.5-10.6c.2-.5.2.6 0 0zm.2-.1c.2-.4.4.5.1.6 0-.2-.2-.4-.1-.6zm22.8.5s-.3.4 0 0zm18.2.4c.2 0 .2.4.1.6-.1-.2-.2-.4-.1-.6zm11.4 1c.5-.9-.4 1.1 0 0zm-1.1-61.2c.2-.2.4-.1.6.1.1.4-1.2.3-1 .2.1-.2.2-.3.4-.3zm-8 2.7c.4-.5 6.9 0 7.8 0 2.2-.1 8.4 1.4 9.8-.4-.2.3 2 .5 2.1.7.5.6-.1 3.8-.1 4.7 0 4.8-.3 9.5 0 14.4.5 8.7-.2 17.7-.3 26.8 0 .8 0 1.6-.1 2.5 0 .4.5.2.5.5s-.5.6-.5 1.1c.1 1.7-.6 4.9 0 6.4-.9-.2-2.6-.4-3.1.5.3-.8-6.6-.8-6.8-.8-.8 0-3.2-.9-3.5.3 0-.2-12.2 0-12.8-.5-.1-.1-5.8.2-5.6-.1 0 0-.1.6-.1.5-.3-.5-3-.6-2.9-.2 0-.2-4.8-1.1-3.5 1.1-1.1-2.1-1.6-1.1-3.7-1.6-.1.1-.1.3-.1.5-.4 0-.9-.4-1.5-.2-.7.2-.6.6-1.2.8.2-.1-1-1.1-1.4-1-.1 0 0 .5 0 .5-.8-.5-.2 0-.8 0 0 0-3.3-.2-2.7.4-.1-.1-.3-.8-.3-.8-.2.1 0 .4 0 .6.3-.9-6-.3-5.9-.1 0 0 0-.6-.1-.6 0 0-2.4 0-2.3.4-.3-1.3-11.2-.2-10.9.8-.3-.7-1.5-.6-2.1-.7-.3 0-.9.9-1.3.5-.2-.2.1-2.4.1-2.6 0-2.2.3-4.2.3-6.3 0-.9.4-7.4-1.5-6.3-.2-1.1.5-.4.8-.6-.3.1.1-2.4.1-2.4.1-.9.1-1.7-.2-2.5-.1-.2-.6-.5-.6-.4-.1-.3.2-.4.2-.8 0-.1.4-2.1.1-2 1.6-1.1.8-5.9.9-8.3.1-1.8-.6-3.8-.6-5 0-1.1.6-2.7.2-4.1-.3-1.4-.4-1.4-.2-2.8s.2-3.3 0-4.7c-.2-1.2.7-7.3-.4-8.1h2.1c1.3.1 2.6.5 3.9.3.5-.1 5.3-.9 5.1-.1 0-.2-.1-.3-.2-.5-.1.2 4 .4 4.5.4 1.2 0 1.9.1 3.1.1 1.7 0 3.5.1 5.1 0 .5 0 3.8-.6 4.1-.4.4.2.7.5 1.9.5 1.6 0 3.2-.2 4.7-.2 2.3-.1 5.5.4 8.2.4h6.1c1.4-.2 4.7.2 5.6-.6zm-8-.6c.1-.3.2-.4.5-.5.1.1.3.5.2.6-.1.1-.7.2-.7-.1zm.9-.1c.2-.2.3-.2.5 0-.2.4-.3.4-.5 0zm14.9-14c-.3.2.1 0 0 0zm.5 0c0-.1-.7-.4-.4-.6.2-.1.7.2.4.6zm25.7-15.8c-.7.1-1.4.6-1.9 1-.2.2-.6 0-.6.1-.5.4-.3 1.1-.5 1.3 0 0-1.8-.4-2.3-.1-.2.1.2.5.1.5-.9 0-1.6.4-2.4.8-.3.1-2.2 1.7-2.1 1.7-.1 0-.7-.5-.8-.5-.3.2.2.3.2.5-.1-1-7.9 4.2-7.8 4.2-.1 0-.2-.6-.4-.5 0 0-2.9 2.1-2.7 2.2-.8-.6-5.7 3.6-6.7 4.5-1.4 1.2-2.8 2.7-4 4.4-.5.7-.6 1.4-1 2-.3.5-.6.6-1.1 1.2-.3.3-1 .8-1.2 1.2-.3.6-.2 1.6-.6 2.1-1.5 1.8-5.4.7-7.6.7-5.6 0-11.8-.1-17.8-.1-3.6.1-7 0-10.6.1-3.3.1-8.6-.7-11 .6 0 0-3.8-.4-3.3.1 0-.2 0-.3.2-.4-.1-.3-2 .2-2.3 0-.7-.4-.5-1.2-.9-1.9 5-.9 7.3-5.1 10.6-8 1.7-1.5 2.5-3.2 3.7-4.8 1-1.4 2.1-2.2 3.2-3.9 2.8-4.4 4.8-8.7 6.3-13.6 1.1-3.7 4.1-6.9 6.6-9.5 1.5-1.6 3.7-3.6 4.8-5.4.4-.6.8-1.5 1.3-1.9.7-.8 1.8-.4 1.4-1.5.5-.5.6-.9 1.1-1.4.7-.7.8-.5 1.6-1.1 1.3-.9 3-2.3 4.1-3.4 2.5-2.5 5.4-4.3 8.4-6.3-.4 1.3-.6 2.9-.9 4.1-.3 1.4-2.3 5.5-1.2 6.7-.6-.6-.7 2.5-.8 2.8-.2 1.1-.9 2.2-1.1 3.3-1.1 5.4 3.8 8.3 8.5 6.3 6-2.5 9.4-9.1 12.5-14.6.9 2.3 1.1 4 3 5.5.1.1.8.4 1.1.6.9.5 2.1 1 3.1 1.3 2.8.9 6.7 1.1 9.9.4 0-.1-.4-1.5-.1-1.3 1.6.8 1.4 1.3 3.4.8 1.7-.4 3.4-.8 4.5-1.7.3-.2 2.5-.6 3-.8.3-.1.7-.2.8-.3.3-.2 1.1-1.4 1.2-1.4-.4.3 4.1-.2 2.8-.6.2-.4 1 0 1.4-.8.9 1.1 5.5 2.4 6.5 1.6.2-.2 12.2 5.5 12.4 4.8l.9-.3c-.1 0-.6.3-.6.4.2-.2.6.1.6.2-.1 0-.1.1.1.1-1 0-2.9 1.8-4 2.6-1.9 1.3-3.7 2.8-5.7 3.8-2.4 1.3-3.7 2-6 3.3-1.1.6-2.2 1.4-3.2 1.9-.1 0-2.1 1-1.6 1.1-1.2-.4-3.1 1-3.9 1.4-1.3.6-3.6.9-5 1.8.1.1.5 1.3.4 1.2-1.9-1.2-1.4-.7-3.1-.1-.7.5-2.5.9-2.9 1zm4.3-.3c.1.2-.5.1-.4-.1.2-.1.3-.1.4.1zm15.1 11.1c-.5.6-3.5 7.9-3.9 7.6-2.4-2-4.5-4.8-6.8-7.1-1.3-1.3-2.4-2.6-3.8-4.3-1.1-1.3-2.9-3.4-4.8-3.9.2-.8 5.6-1.2 5.6-2 0-.2.1-1.4-.3-1.4.1 0-1 .7-.6-.3.1-.6 1.7.9 1.7 1 .3-.2.3-1.1.7-1.2.6-.1.8.2 1.2.1.8-.2 2.5.2 2.6-.7-.1.6.9-1.1.8-1-.3.3.5.4.5.4s-.2-.6-.1-.6c.5 0 .7-.2.8-.3 1-.3 2.3-.3 3.5-.6.9 2.2 1.6 4.6 2 7.1.2 1.3.2 2.6.3 3.9.2.6.7 3.2.6 3.3zm.4-1.6c-.2.8-.9-.6-.3-.7.2.1.3.4.3.7zm17.9-6.4c-.3 0-.7-.3-.3-.6.2.1.3.3.3.6zM449.3 62c-.1.3-.4.3-.7.2-.3-.1.2-.7.2-.7.1.2.6.3.5.5zm.5 0c-.4 0-.4-.2-.1-.4.3 0 .4.1.1.4z" fill="#222525"/></svg>