<?xml version="1.0" standalone="no"?>
<!DOCTYPE svg PUBLIC "-//W3C//DTD SVG 20010904//EN"
 "http://www.w3.org/TR/2001/REC-SVG-20010904/DTD/svg10.dtd">
<svg version="1.0" xmlns="http://www.w3.org/2000/svg"
 width="1500.000000pt" height="1500.000000pt" viewBox="0 0 1500.000000 1500.000000"
 preserveAspectRatio="xMidYMid meet">
<metadata>
Created by potrace 1.11, written by Peter Selinger 2001-2013
</metadata>
<g transform="translate(0.000000,1500.000000) scale(0.100000,-0.100000)"
fill="#000000" stroke="none">
<path d="M8078 14055 c-1 -1 -34 -5 -73 -9 -125 -11 -163 -17 -307 -47 -79
-16 -150 -32 -158 -34 -8 -2 -37 -10 -63 -17 -27 -8 -46 -16 -42 -19 7 -7 -15
-4 -110 15 -38 9 -92 18 -120 21 -27 4 -63 8 -80 10 -178 23 -583 23 -740 0
-16 -2 -48 -7 -70 -9 -101 -13 -290 -52 -400 -84 -38 -11 -119 -34 -180 -52
-60 -17 -117 -33 -125 -37 -8 -3 -17 -7 -20 -8 -32 -8 -245 -82 -275 -95 -11
-5 -72 -30 -135 -56 -153 -63 -466 -223 -617 -316 -182 -113 -394 -268 -528
-387 -70 -62 -339 -334 -385 -390 -25 -29 -50 -59 -55 -65 -6 -6 -24 -29 -40
-51 -17 -22 -34 -45 -40 -51 -5 -6 -17 -22 -25 -34 -8 -12 -29 -41 -45 -64
-167 -226 -367 -617 -456 -891 -54 -163 -117 -406 -133 -505 -3 -19 -8 -46
-11 -60 -2 -13 -7 -42 -10 -65 -3 -22 -10 -67 -15 -100 -20 -134 -24 -223 -25
-490 0 -292 5 -388 35 -615 6 -41 12 -86 15 -100 2 -14 11 -65 19 -115 17 -98
17 -95 41 -210 152 -733 508 -1641 960 -2445 23 -41 53 -95 67 -120 65 -117
222 -375 230 -378 4 -2 8 -8 8 -13 0 -10 138 -227 157 -247 7 -7 13 -17 13
-22 0 -5 6 -15 13 -22 6 -8 17 -21 22 -30 14 -23 132 -195 170 -248 43 -61
218 -303 228 -315 4 -5 53 -68 107 -139 94 -120 307 -385 319 -396 3 -3 55
-61 116 -130 222 -254 483 -513 715 -709 41 -35 99 -84 129 -110 30 -25 64
-53 75 -61 12 -8 26 -19 33 -26 58 -56 429 -319 527 -373 62 -34 195 -76 274
-87 25 -3 58 -8 72 -10 34 -5 227 -4 270 1 97 12 118 16 150 25 19 6 50 13 68
16 174 29 590 210 790 345 24 16 45 29 48 29 6 0 263 177 314 217 79 61 281
223 305 245 17 14 41 36 55 48 14 12 52 45 85 73 70 61 485 474 570 567 53 58
130 145 195 220 73 84 207 246 240 290 14 18 30 38 36 44 41 43 340 449 469
638 54 80 265 408 265 413 0 1 26 45 59 96 32 52 104 177 160 279 56 102 106
192 111 200 15 25 206 410 240 484 161 349 328 792 429 1142 38 132 94 347
105 404 2 14 14 72 25 130 38 191 40 204 51 285 6 44 13 91 16 105 2 14 6 59
10 100 3 41 7 81 9 87 16 50 23 464 12 668 -9 153 -12 177 -37 355 -77 544
-286 1100 -578 1540 -236 355 -529 642 -853 835 -154 91 -466 218 -594 240
-22 4 -44 13 -50 19 -18 21 -260 196 -271 196 -3 0 -20 11 -38 25 -18 14 -37
25 -41 25 -5 0 -16 6 -24 14 -26 23 -280 152 -376 191 -49 20 -99 40 -110 45
-59 28 -343 109 -435 125 -19 3 -42 8 -50 10 -18 5 -54 11 -130 20 -30 4 -64
9 -75 12 -22 5 -481 13 -487 8z m127 -393 c-3 -3 -11 0 -18 7 -9 10 -8 11 6 5
10 -3 15 -9 12 -12z m-1475 -66 c0 -2 -8 -10 -17 -17 -16 -13 -17 -12 -4 4 13
16 21 21 21 13z m2140 -310 c0 -2 -7 -7 -16 -10 -8 -3 -12 -2 -9 4 6 10 25 14
25 6z m-45 -16 c-3 -5 -14 -10 -23 -9 -14 0 -13 2 3 9 27 11 27 11 20 0z
m1072 -2862 c-3 -8 -6 -5 -6 6 -1 11 2 17 5 13 3 -3 4 -12 1 -19z m-10 -300
c-3 -8 -6 -5 -6 6 -1 11 2 17 5 13 3 -3 4 -12 1 -19z m-10 -120 c-3 -8 -6 -5
-6 6 -1 11 2 17 5 13 3 -3 4 -12 1 -19z m-10 -110 c-3 -8 -6 -5 -6 6 -1 11 2
17 5 13 3 -3 4 -12 1 -19z m-80 -560 c-3 -7 -5 -2 -5 12 0 14 2 19 5 13 2 -7
2 -19 0 -25z m-10 -60 c-3 -7 -5 -2 -5 12 0 14 2 19 5 13 2 -7 2 -19 0 -25z
m-30 -140 c-3 -8 -6 -5 -6 6 -1 11 2 17 5 13 3 -3 4 -12 1 -19z m-25 -100 c-8
-8 -9 -4 -5 13 4 13 8 18 11 10 2 -7 -1 -18 -6 -23z m-35 -160 c-3 -8 -6 -5
-6 6 -1 11 2 17 5 13 3 -3 4 -12 1 -19z m-36 -145 c-12 -20 -14 -14 -5 12 4 9
9 14 11 11 3 -2 0 -13 -6 -23z m-24 -85 c-3 -8 -6 -5 -6 6 -1 11 2 17 5 13 3
-3 4 -12 1 -19z m-14 -53 c-3 -9 -8 -14 -10 -11 -3 3 -2 9 2 15 9 16 15 13 8
-4z m-26 -87 c-3 -8 -6 -5 -6 6 -1 11 2 17 5 13 3 -3 4 -12 1 -19z m-50 -170
c-3 -8 -6 -5 -6 6 -1 11 2 17 5 13 3 -3 4 -12 1 -19z m-46 -135 c-12 -20 -14
-14 -5 12 4 9 9 14 11 11 3 -2 0 -13 -6 -23z m-79 -235 c-8 -8 -9 -4 -5 13 4
13 8 18 11 10 2 -7 -1 -18 -6 -23z m-71 -185 c-12 -20 -14 -14 -5 12 4 9 9 14
11 11 3 -2 0 -13 -6 -23z m-18 -58 c-3 -9 -8 -14 -10 -11 -3 3 -2 9 2 15 9 16
15 13 8 -4z m-50 -125 c-3 -12 -8 -19 -11 -16 -5 6 5 36 12 36 2 0 2 -9 -1
-20z m-22 -53 c-10 -9 -11 -8 -5 6 3 10 9 15 12 12 3 -3 0 -11 -7 -18z m-40
-100 c-10 -9 -11 -8 -5 6 3 10 9 15 12 12 3 -3 0 -11 -7 -18z m-65 -154 c-8
-15 -15 -25 -16 -21 0 12 23 58 27 54 3 -2 -2 -17 -11 -33z m-66 -153 c-6 -11
-13 -20 -16 -20 -2 0 0 9 6 20 6 11 13 20 16 20 2 0 0 -9 -6 -20z m-29 -57
c-12 -20 -14 -14 -5 12 4 9 9 14 11 11 3 -2 0 -13 -6 -23z m-30 -70 c-12 -20
-14 -14 -5 12 4 9 9 14 11 11 3 -2 0 -13 -6 -23z m-20 -46 c-10 -9 -11 -8 -5
6 3 10 9 15 12 12 3 -3 0 -11 -7 -18z m-53 -112 c-6 -14 -13 -23 -15 -21 -5 5
15 46 22 46 3 0 -1 -11 -7 -25z m-42 -87 c-9 -12 -16 -19 -16 -15 0 11 24 47
28 42 2 -2 -3 -14 -12 -27z m-35 -71 c-10 -9 -11 -8 -5 6 3 10 9 15 12 12 3
-3 0 -11 -7 -18z m-40 -80 c-10 -9 -11 -8 -5 6 3 10 9 15 12 12 3 -3 0 -11 -7
-18z m-38 -72 c-3 -9 -8 -14 -10 -11 -3 3 -2 9 2 15 9 16 15 13 8 -4z m-27
-57 c-9 -12 -16 -19 -16 -15 0 11 24 47 28 42 2 -2 -3 -14 -12 -27z m-76 -148
c-6 -11 -13 -20 -16 -20 -2 0 0 9 6 20 6 11 13 20 16 20 2 0 0 -9 -6 -20z
m-37 -65 c-3 -9 -8 -14 -10 -11 -3 3 -2 9 2 15 9 16 15 13 8 -4z m-69 -130
c-9 -14 -18 -25 -21 -25 -5 0 5 18 20 38 17 22 18 13 1 -13z m-73 -128 c-10
-9 -11 -8 -5 6 3 10 9 15 12 12 3 -3 0 -11 -7 -18z m-11 -31 c0 -2 -8 -10 -17
-17 -16 -13 -17 -12 -4 4 13 16 21 21 21 13z m-39 -59 c-10 -9 -11 -8 -5 6 3
10 9 15 12 12 3 -3 0 -11 -7 -18z m-40 -70 c-10 -9 -11 -8 -5 6 3 10 9 15 12
12 3 -3 0 -11 -7 -18z m-31 -55 c0 -5 -7 -17 -15 -28 -14 -18 -14 -17 -4 9 12
27 19 34 19 19z m-94 -160 c-17 -16 -18 -16 -5 5 7 12 15 20 18 17 3 -2 -3
-12 -13 -22z m-95 -155 c-10 -9 -11 -8 -5 6 3 10 9 15 12 12 3 -3 0 -11 -7
-18z m-51 -86 c-5 -11 -15 -23 -21 -27 -6 -3 -3 5 6 20 20 30 30 35 15 7z
m-42 -71 c-7 -10 -14 -17 -17 -15 -4 4 18 35 25 35 2 0 -1 -9 -8 -20z m-18
-34 c0 -2 -8 -10 -17 -17 -16 -13 -17 -12 -4 4 13 16 21 21 21 13z m-47 -71
c-3 -9 -8 -14 -10 -11 -3 3 -2 9 2 15 9 16 15 13 8 -4z m-43 -69 c0 -2 -8 -10
-17 -17 -16 -13 -17 -12 -4 4 13 16 21 21 21 13z m-77 -111 c-3 -9 -8 -14 -10
-11 -3 3 -2 9 2 15 9 16 15 13 8 -4z m-53 -89 c0 -2 -8 -10 -17 -17 -16 -13
-17 -12 -4 4 13 16 21 21 21 13z m-40 -60 c0 -2 -8 -10 -17 -17 -16 -13 -17
-12 -4 4 13 16 21 21 21 13z m-40 -55 c-5 -11 -15 -23 -21 -27 -6 -3 -3 5 6
20 20 30 30 35 15 7z m-139 -204 l-24 -22 19 27 c10 14 21 24 23 22 3 -3 -6
-15 -18 -27z m-221 -321 c0 -2 -8 -10 -17 -17 -16 -13 -17 -12 -4 4 13 16 21
21 21 13z m-50 -70 c0 -2 -8 -10 -17 -17 -16 -13 -17 -12 -4 4 13 16 21 21 21
13z m-77 -101 c-3 -9 -8 -14 -10 -11 -3 3 -2 9 2 15 9 16 15 13 8 -4z m-183
-249 c0 -2 -8 -10 -17 -17 -16 -13 -17 -12 -4 4 13 16 21 21 21 13z m-220
-289 c0 -2 -10 -12 -22 -23 l-23 -19 19 23 c18 21 26 27 26 19z"/>
<path d="M6496 2434 c-9 -8 -16 -25 -17 -37 0 -12 -3 -53 -6 -92 -9 -102 -9
-569 0 -645 11 -94 16 -129 29 -185 7 -27 13 -52 13 -55 0 -3 7 -23 14 -45 47
-140 158 -244 348 -325 72 -30 224 -73 304 -85 24 -4 69 -11 99 -15 55 -9 388
-6 425 3 11 2 45 8 75 13 30 4 57 8 60 9 3 1 19 5 35 9 215 56 349 122 462
229 92 87 132 199 161 452 9 79 9 499 0 644 -10 156 -13 158 -121 104 -118
-60 -208 -96 -302 -119 -149 -37 -219 -48 -353 -59 -63 -6 -397 -6 -447 0 -22
2 -67 7 -100 10 -178 18 -382 76 -554 156 -57 27 -105 49 -107 49 -1 0 -10 -7
-18 -16z"/>
</g>
</svg>
