<svg width="32" height="32" viewBox="0 0 32 32" fill="none" xmlns="http://www.w3.org/2000/svg">
<path fill-rule="evenodd" clip-rule="evenodd" d="M26.8 4H5.2C4.53333 4 4 4.53333 4 5.2V26.8C4 27.3333 4.53333 28 5.2 28H26.8C27.3333 28 28 27.3333 28 26.8V5.2C28 4.53333 27.3333 4 26.8 4ZM14.6667 9.33333H22.6667V12H14.6667V9.33333ZM14.6667 14.6667H22.6667V17.3333H14.6667V14.6667ZM22.6667 20H14.6667V22.6667H22.6667V20ZM6.66667 25.3333H25.3333V6.66667H6.66667V25.3333Z" fill="#123466"/>
<path d="M9.33398 9.33301H12.0007V11.9997H9.33398V9.33301Z" fill="#FF5745"/>
<path d="M9.33398 14.667H12.0007V17.3337H9.33398V14.667Z" fill="#FF5745"/>
<path d="M9.33398 20H12.0007V22.6667H9.33398V20Z" fill="#FF5745"/>
</svg>
