<svg width="32" height="32" viewBox="0 0 32 32" fill="none" xmlns="http://www.w3.org/2000/svg">
<path d="M19.4179 12.5821V9H16.5821V12.5821H13V15.4179H16.5821V19H19.4179V15.4179H23V12.5821H19.4179Z" fill="#FF5745"/>
<path d="M6.18182 8.36364H4V25.8182C4 27.0182 4.98182 28 6.18182 28H23.6364V25.8182H6.18182V8.36364ZM25.8182 4H10.5455C9.34545 4 8.36364 4.98182 8.36364 6.18182V21.4545C8.36364 22.6545 9.34545 23.6364 10.5455 23.6364H25.8182C27.0182 23.6364 28 22.6545 28 21.4545V6.18182C28 4.98182 27.0182 4 25.8182 4ZM25.8182 21.4545H10.5455V6.18182H25.8182V21.4545Z" fill="#123466"/>
</svg>
