<svg width="32" height="32" viewBox="0 0 32 32" fill="none" xmlns="http://www.w3.org/2000/svg">
<path fill-rule="evenodd" clip-rule="evenodd" d="M19.333 10.3333C19.333 13.28 16.9463 15.6667 13.9997 15.6667C11.053 15.6667 8.66634 13.28 8.66634 10.3333C8.66634 7.38667 11.053 5 13.9997 5C16.9463 5 19.333 7.38667 19.333 10.3333ZM16.6663 10.3333C16.6663 8.86667 15.4663 7.66667 13.9997 7.66667C12.533 7.66667 11.333 8.86667 11.333 10.3333C11.333 11.8 12.533 13 13.9997 13C15.4663 13 16.6663 11.8 16.6663 10.3333ZM5.99967 23.6667C6.26634 22.8267 9.42634 21.4267 12.613 21.08L15.333 18.4133C14.813 18.36 14.4263 18.3333 13.9997 18.3333C10.4397 18.3333 3.33301 20.12 3.33301 23.6667V26.3333H15.333L12.6663 23.6667H5.99967ZM19.9597 23.2267L26.7997 16.3333L28.6663 18.2133L19.9597 27L15.333 22.3333L17.1997 20.4533L19.9597 23.2267Z" fill="#123466"/>
<path d="M26.7997 16.333L19.9597 23.2263L17.1997 20.453L15.333 22.333L19.9597 26.9997L28.6663 18.213L26.7997 16.333Z" fill="#FF5745"/>
</svg>
