<svg width="32" height="32" viewBox="0 0 32 32" fill="none" xmlns="http://www.w3.org/2000/svg">
<g clip-path="url(#clip0)">
<path fill-rule="evenodd" clip-rule="evenodd" d="M25.5329 13.8932L27.1729 11.4265L27.1862 11.4132C28.5231 13.4749 29.2642 15.866 29.3277 18.3224C29.3913 20.7789 28.7747 23.2051 27.5462 25.3332C27.4293 25.5357 27.2868 25.721 27.123 25.8849L25.2379 23.9998H25.2396C26.1206 22.4709 26.6086 20.7473 26.6598 18.9835C26.711 17.2196 26.3238 15.4706 25.5329 13.8932ZM6.74021 23.9661C5.60912 21.9873 5.14148 19.6978 5.40643 17.4333C5.67289 15.1559 6.66613 13.0249 8.23888 11.3564C9.81164 9.68788 11.8802 8.57056 14.1379 8.1701C16.3956 7.76964 18.7222 8.10735 20.7729 9.13317L23.2396 7.49317C20.7282 5.88279 17.7493 5.16118 14.7794 5.44375C11.8095 5.72633 9.02017 6.99677 6.85757 9.05185C4.69497 11.1069 3.28406 13.8279 2.85054 16.7796C2.41701 19.7312 2.98591 22.743 4.46625 25.3332C4.57504 25.5216 4.706 25.6952 4.85574 25.8506L6.74021 23.9661ZM14.9851 21.1253C14.6613 20.9911 14.3672 20.7944 14.1196 20.5465C13.8716 20.2988 13.675 20.0047 13.5408 19.681C13.4066 19.3573 13.3375 19.0103 13.3375 18.6598C13.3375 18.3094 13.4066 17.9624 13.5408 17.6387C13.675 17.3149 13.8716 17.0208 14.1196 16.7732L25.4396 9.2265L17.8929 20.5465C17.6453 20.7944 17.3511 20.9911 17.0274 21.1253C16.7037 21.2595 16.3567 21.3286 16.0062 21.3286C15.6558 21.3286 15.3088 21.2595 14.9851 21.1253Z" fill="#123466"/>
<path d="M14.9855 21.1254C14.6618 20.9912 14.3677 20.7945 14.12 20.5466C13.8721 20.2989 13.6754 20.0048 13.5412 19.6811C13.407 19.3573 13.3379 19.0103 13.3379 18.6599C13.3379 18.3095 13.407 17.9625 13.5412 17.6387C13.6754 17.315 13.8721 17.0209 14.12 16.7732L25.44 9.22656L17.8933 20.5466C17.6457 20.7945 17.3516 20.9912 17.0278 21.1254C16.7041 21.2596 16.3571 21.3287 16.0067 21.3287C15.6562 21.3287 15.3092 21.2596 14.9855 21.1254Z" fill="#FF5745"/>
</g>
<defs>
<clipPath id="clip0">
<path d="M0 0H32V32H0V0Z" fill="white"/>
</clipPath>
</defs>
</svg>
