<svg width="32" height="32" viewBox="0 0 32 32" fill="none" xmlns="http://www.w3.org/2000/svg">
<path d="M16 19.2917C19.7733 19.2917 23.8533 18.9042 27.3333 18L28 20.5834C25.52 21.2292 22.6667 21.6555 20 21.8751C18.2205 21.9693 14.1293 22.1013 12 21.8751C9.33333 21.6555 6.48 21.2292 4 20.5834L4.66667 18C8.14667 18.9042 12.2267 19.2917 16 19.2917Z" fill="#123466"/>
<path fill-rule="evenodd" clip-rule="evenodd" d="M27.2491 11.4433C27.4354 11.1268 27.6042 10.7721 27.7562 10.3806L27.7579 10.376C27.9173 9.94836 28 9.52092 28 9.09582C28 8.23822 27.7191 7.49943 27.1609 6.90043C26.6014 6.29999 25.905 6 25.0931 6C24.2704 6 23.5642 6.3032 22.989 6.89895C22.4139 6.3032 21.7077 6 20.885 6C20.0858 6 19.3973 6.30143 18.8391 6.90043C18.2809 7.49943 18 8.23822 18 9.09582C18 9.51589 18.0731 9.93957 18.2158 10.3649L18.2219 10.3806C18.3739 10.7721 18.5427 11.1268 18.729 11.4433C18.9204 11.7686 19.2287 12.1713 19.6423 12.6468L19.6462 12.6512C20.0717 13.1235 20.4331 13.5115 20.7298 13.814L20.7362 13.8202C21.0265 14.1006 21.4778 14.546 22.0913 15.1574L22.9929 16L23.8808 15.1394L23.8821 15.1382C24.51 14.5427 24.9664 14.1004 25.2482 13.8139C25.5463 13.5101 25.9011 13.1213 26.3119 12.649C26.7393 12.1744 27.0563 11.7709 27.2491 11.4433ZM22.9894 7.40234C23.0603 7.31215 23.1334 7.22781 23.2091 7.14915C23.5402 6.80531 23.9171 6.57157 24.3395 6.44797C23.8206 6.59982 23.3705 6.91795 22.9894 7.40234Z" fill="#FF5745"/>
<path d="M7.75579 9.88224C8.63774 10.0792 9.33755 10.3656 9.85522 10.7416C10.3729 11.1176 10.6317 11.6637 10.6317 12.3798C10.6317 12.9527 10.4304 13.4093 10.0278 13.7494C9.64432 14.0896 9.13624 14.3134 8.50353 14.4208V15.6562H6.66293V14.4208C6.01106 14.2955 5.47422 14.0448 5.05241 13.6689C4.64978 13.2929 4.42929 12.8095 4.39095 12.2187H5.74264C5.81933 13.0243 6.43286 13.4272 7.58323 13.4272C8.17759 13.4272 8.5994 13.3197 8.84864 13.1049C9.09789 12.8901 9.22252 12.6573 9.22252 12.4067C9.22252 12.1023 9.0883 11.8337 8.81988 11.601C8.57064 11.3682 8.09131 11.1713 7.38192 11.0102C5.46463 10.5805 4.50598 9.79272 4.50598 8.64689C4.50598 8.12768 4.7073 7.68904 5.10993 7.33097C5.51256 6.95499 6.03023 6.70434 6.66293 6.57902V5.34367H8.50353V6.60587C9.11706 6.7491 9.5868 7.01766 9.91274 7.41154C10.2579 7.80542 10.44 8.26196 10.4592 8.78117H9.10748C9.06913 7.9755 8.56105 7.57267 7.58323 7.57267C7.06557 7.57267 6.65335 7.67114 6.34658 7.86808C6.05899 8.06502 5.91519 8.32462 5.91519 8.64689C5.91519 8.91544 6.0494 9.14819 6.31782 9.34513C6.58624 9.52417 7.06557 9.7032 7.75579 9.88224Z" fill="#123466"/>
<path fill-rule="evenodd" clip-rule="evenodd" d="M9.10748 8.78117C9.06913 7.9755 8.56105 7.57267 7.58323 7.57267C7.06557 7.57267 6.65335 7.67114 6.34658 7.86808C6.05899 8.06502 5.91519 8.32462 5.91519 8.64689C5.91519 8.91544 6.0494 9.14819 6.31782 9.34513C6.58624 9.52417 7.06557 9.7032 7.75579 9.88224C8.63774 10.0792 9.33755 10.3656 9.85522 10.7416C10.3729 11.1176 10.6317 11.6637 10.6317 12.3798C10.6317 12.9527 10.4304 13.4093 10.0278 13.7494C9.64432 14.0896 9.13624 14.3134 8.50353 14.4208V15.6562H6.66293V14.4208C6.01106 14.2955 5.47422 14.0448 5.05241 13.6689C4.73083 13.3686 4.5256 12.9998 4.43641 12.5625C4.41392 12.4523 4.39867 12.3376 4.39095 12.2187H5.74264C5.81933 13.0243 6.43286 13.4272 7.58323 13.4272C8.17759 13.4272 8.5994 13.3197 8.84864 13.1049C9.09789 12.8901 9.22252 12.6573 9.22252 12.4067C9.22252 12.1023 9.0883 11.8337 8.81988 11.601C8.57064 11.3682 8.09131 11.1713 7.38192 11.0102C5.46463 10.5805 4.50598 9.79272 4.50598 8.64689C4.50598 8.12768 4.7073 7.68904 5.10993 7.33097C5.51256 6.95499 6.03023 6.70434 6.66293 6.57902V5.34367H8.50353V6.60587C9.11706 6.7491 9.5868 7.01766 9.91274 7.41154C10.1795 7.71604 10.3491 8.05809 10.4211 8.4375C10.4422 8.54886 10.4548 8.66336 10.4592 8.78117H9.10748ZM10.201 7.19764C10.5962 7.65027 10.8054 8.17825 10.8272 8.7694L10.8404 9.125H8.75551L8.73988 8.79651C8.72383 8.45935 8.61414 8.25948 8.45956 8.13692C8.29708 8.0081 8.02472 7.9165 7.58339 7.9165C7.11524 7.9165 6.78551 8.00531 6.55993 8.14847C6.36639 8.28253 6.28347 8.44004 6.28347 8.64697C6.28347 8.78818 6.3458 8.92636 6.53874 9.06999C6.75223 9.20994 7.17328 9.37408 7.84817 9.54948C8.75988 9.75371 9.51097 10.0561 10.0814 10.4704C10.7045 10.923 11 11.5779 11 12.3799C11 13.0345 10.7662 13.5877 10.2783 14.0016C9.9 14.3361 9.42647 14.5649 8.87181 14.6976V16H6.29497V14.6914C5.71169 14.54 5.20941 14.284 4.79839 13.9176L4.7922 13.9121C4.31864 13.4699 4.06678 12.904 4.02366 12.2395L4 11.875H6.07964L6.10947 12.1883C6.13987 12.5077 6.26832 12.7101 6.4722 12.8439C6.6919 12.9882 7.04616 13.0835 7.58339 13.0835C8.14884 13.0835 8.45341 12.978 8.59911 12.8524C8.79409 12.6843 8.85455 12.5374 8.85455 12.4067C8.85455 12.2103 8.77323 12.0296 8.56955 11.853L8.55956 11.8443C8.38709 11.6833 7.99568 11.5035 7.29565 11.3444C6.30778 11.123 5.52412 10.8008 4.98194 10.3552C4.42688 9.89911 4.13802 9.32316 4.13802 8.64697C4.13802 8.0351 4.37951 7.50752 4.85294 7.08505C5.24596 6.71909 5.7302 6.46281 6.29497 6.31074V5H8.87181V6.34817C9.42055 6.51935 9.87014 6.79943 10.201 7.19764Z" fill="#123466"/>
<path d="M16 22L18.5981 26.5H13.4019L16 22Z" fill="#123466"/>
</svg>
